<mxfile host="app.diagrams.net" agent="Mozilla/5.0 (X11; Ubuntu; Linux x86_64; rv:134.0) Gecko/20100101 Firefox/134.0" version="26.0.6">
  <diagram name="PÃ¡gina-1" id="hPiAsvS8NoHA7IWey9WH">
    <mxGraphModel grid="1" page="1" gridSize="10" guides="1" tooltips="1" connect="1" arrows="1" fold="1" pageScale="1" pageWidth="827" pageHeight="1169" math="0" shadow="0">
      <root>
        <mxCell id="0" />
        <mxCell id="1" parent="0" />
        <mxCell id="KLBk__PiLaGitWqSj2PP-41" value="" style="rounded=0;whiteSpace=wrap;html=1;fillColor=#99CCFF;" vertex="1" parent="1">
          <mxGeometry x="534" y="50" width="150" height="2070" as="geometry" />
        </mxCell>
        <mxCell id="KLBk__PiLaGitWqSj2PP-38" value="" style="rounded=0;whiteSpace=wrap;html=1;fillColor=#99FF99;" vertex="1" parent="1">
          <mxGeometry x="384" y="50" width="150" height="2070" as="geometry" />
        </mxCell>
        <mxCell id="KLBk__PiLaGitWqSj2PP-8" style="edgeStyle=orthogonalEdgeStyle;rounded=0;orthogonalLoop=1;jettySize=auto;html=1;entryX=0;entryY=0.5;entryDx=0;entryDy=0;" edge="1" parent="1" source="KLBk__PiLaGitWqSj2PP-1" target="KLBk__PiLaGitWqSj2PP-2">
          <mxGeometry relative="1" as="geometry" />
        </mxCell>
        <mxCell id="KLBk__PiLaGitWqSj2PP-16" style="edgeStyle=orthogonalEdgeStyle;rounded=0;orthogonalLoop=1;jettySize=auto;html=1;entryX=0;entryY=0.5;entryDx=0;entryDy=0;" edge="1" parent="1" source="KLBk__PiLaGitWqSj2PP-1" target="KLBk__PiLaGitWqSj2PP-15">
          <mxGeometry relative="1" as="geometry" />
        </mxCell>
        <mxCell id="KLBk__PiLaGitWqSj2PP-144" style="edgeStyle=orthogonalEdgeStyle;rounded=0;orthogonalLoop=1;jettySize=auto;html=1;entryX=0;entryY=0.5;entryDx=0;entryDy=0;" edge="1" parent="1" source="KLBk__PiLaGitWqSj2PP-1" target="KLBk__PiLaGitWqSj2PP-65">
          <mxGeometry relative="1" as="geometry" />
        </mxCell>
        <mxCell id="KLBk__PiLaGitWqSj2PP-145" style="edgeStyle=orthogonalEdgeStyle;rounded=0;orthogonalLoop=1;jettySize=auto;html=1;entryX=0;entryY=0.5;entryDx=0;entryDy=0;" edge="1" parent="1" source="KLBk__PiLaGitWqSj2PP-1" target="KLBk__PiLaGitWqSj2PP-97">
          <mxGeometry relative="1" as="geometry" />
        </mxCell>
        <mxCell id="KLBk__PiLaGitWqSj2PP-146" style="edgeStyle=orthogonalEdgeStyle;rounded=0;orthogonalLoop=1;jettySize=auto;html=1;entryX=0;entryY=0.5;entryDx=0;entryDy=0;" edge="1" parent="1" source="KLBk__PiLaGitWqSj2PP-1" target="KLBk__PiLaGitWqSj2PP-113">
          <mxGeometry relative="1" as="geometry" />
        </mxCell>
        <mxCell id="KLBk__PiLaGitWqSj2PP-1" value="Automotive Industry" style="rounded=1;whiteSpace=wrap;html=1;" vertex="1" parent="1">
          <mxGeometry x="20" y="110" width="120" height="60" as="geometry" />
        </mxCell>
        <mxCell id="KLBk__PiLaGitWqSj2PP-10" style="edgeStyle=orthogonalEdgeStyle;rounded=0;orthogonalLoop=1;jettySize=auto;html=1;entryX=0;entryY=0.5;entryDx=0;entryDy=0;" edge="1" parent="1" source="KLBk__PiLaGitWqSj2PP-2" target="KLBk__PiLaGitWqSj2PP-3">
          <mxGeometry relative="1" as="geometry" />
        </mxCell>
        <mxCell id="KLBk__PiLaGitWqSj2PP-11" style="edgeStyle=orthogonalEdgeStyle;rounded=0;orthogonalLoop=1;jettySize=auto;html=1;entryX=0;entryY=0.5;entryDx=0;entryDy=0;" edge="1" parent="1" source="KLBk__PiLaGitWqSj2PP-2" target="KLBk__PiLaGitWqSj2PP-4">
          <mxGeometry relative="1" as="geometry" />
        </mxCell>
        <mxCell id="KLBk__PiLaGitWqSj2PP-12" style="edgeStyle=orthogonalEdgeStyle;rounded=0;orthogonalLoop=1;jettySize=auto;html=1;entryX=0;entryY=0.5;entryDx=0;entryDy=0;" edge="1" parent="1" source="KLBk__PiLaGitWqSj2PP-2" target="KLBk__PiLaGitWqSj2PP-5">
          <mxGeometry relative="1" as="geometry" />
        </mxCell>
        <mxCell id="KLBk__PiLaGitWqSj2PP-13" style="edgeStyle=orthogonalEdgeStyle;rounded=0;orthogonalLoop=1;jettySize=auto;html=1;entryX=0;entryY=0.5;entryDx=0;entryDy=0;" edge="1" parent="1" source="KLBk__PiLaGitWqSj2PP-2" target="KLBk__PiLaGitWqSj2PP-6">
          <mxGeometry relative="1" as="geometry" />
        </mxCell>
        <mxCell id="KLBk__PiLaGitWqSj2PP-14" style="edgeStyle=orthogonalEdgeStyle;rounded=0;orthogonalLoop=1;jettySize=auto;html=1;entryX=0;entryY=0.5;entryDx=0;entryDy=0;" edge="1" parent="1" source="KLBk__PiLaGitWqSj2PP-2" target="KLBk__PiLaGitWqSj2PP-7">
          <mxGeometry relative="1" as="geometry" />
        </mxCell>
        <mxCell id="KLBk__PiLaGitWqSj2PP-2" value="&lt;div&gt;&lt;b&gt;[Product]&lt;/b&gt;&lt;/div&gt;AWS Direct Connect" style="rounded=1;whiteSpace=wrap;html=1;" vertex="1" parent="1">
          <mxGeometry x="210" y="110" width="120" height="60" as="geometry" />
        </mxCell>
        <mxCell id="KLBk__PiLaGitWqSj2PP-3" value="&lt;div&gt;&lt;b&gt;[Feature]&lt;/b&gt;&lt;/div&gt;Dedicated Network Connection" style="rounded=1;whiteSpace=wrap;html=1;" vertex="1" parent="1">
          <mxGeometry x="400" y="110" width="120" height="60" as="geometry" />
        </mxCell>
        <mxCell id="KLBk__PiLaGitWqSj2PP-4" value="&lt;div&gt;&lt;b&gt;[Feature]&lt;/b&gt;&lt;/div&gt;High-Speed Connectivity" style="rounded=1;whiteSpace=wrap;html=1;" vertex="1" parent="1">
          <mxGeometry x="400" y="180" width="120" height="60" as="geometry" />
        </mxCell>
        <mxCell id="KLBk__PiLaGitWqSj2PP-5" value="&lt;div&gt;&lt;b&gt;[Feature]&lt;/b&gt;&lt;/div&gt;MACsec and IPsec Encryption" style="rounded=1;whiteSpace=wrap;html=1;" vertex="1" parent="1">
          <mxGeometry x="400" y="250" width="120" height="60" as="geometry" />
        </mxCell>
        <mxCell id="KLBk__PiLaGitWqSj2PP-6" value="&lt;div&gt;&lt;b&gt;[Feature]&lt;/b&gt;&lt;/div&gt;SiteLink (end to end network connection)" style="rounded=1;whiteSpace=wrap;html=1;" vertex="1" parent="1">
          <mxGeometry x="400" y="320" width="120" height="60" as="geometry" />
        </mxCell>
        <mxCell id="KLBk__PiLaGitWqSj2PP-7" value="&lt;div&gt;&lt;b&gt;[Feature]&lt;/b&gt;&lt;/div&gt;Multiple Deployment Options" style="rounded=1;whiteSpace=wrap;html=1;" vertex="1" parent="1">
          <mxGeometry x="400" y="390" width="120" height="60" as="geometry" />
        </mxCell>
        <mxCell id="KLBk__PiLaGitWqSj2PP-18" style="edgeStyle=orthogonalEdgeStyle;rounded=0;orthogonalLoop=1;jettySize=auto;html=1;entryX=0;entryY=0.5;entryDx=0;entryDy=0;" edge="1" parent="1" source="KLBk__PiLaGitWqSj2PP-15" target="KLBk__PiLaGitWqSj2PP-17">
          <mxGeometry relative="1" as="geometry" />
        </mxCell>
        <mxCell id="KLBk__PiLaGitWqSj2PP-24" style="edgeStyle=orthogonalEdgeStyle;rounded=0;orthogonalLoop=1;jettySize=auto;html=1;entryX=0;entryY=0.5;entryDx=0;entryDy=0;" edge="1" parent="1" source="KLBk__PiLaGitWqSj2PP-15" target="KLBk__PiLaGitWqSj2PP-19">
          <mxGeometry relative="1" as="geometry" />
        </mxCell>
        <mxCell id="KLBk__PiLaGitWqSj2PP-25" style="edgeStyle=orthogonalEdgeStyle;rounded=0;orthogonalLoop=1;jettySize=auto;html=1;entryX=0;entryY=0.5;entryDx=0;entryDy=0;" edge="1" parent="1" source="KLBk__PiLaGitWqSj2PP-15" target="KLBk__PiLaGitWqSj2PP-20">
          <mxGeometry relative="1" as="geometry" />
        </mxCell>
        <mxCell id="KLBk__PiLaGitWqSj2PP-26" style="edgeStyle=orthogonalEdgeStyle;rounded=0;orthogonalLoop=1;jettySize=auto;html=1;entryX=0;entryY=0.5;entryDx=0;entryDy=0;" edge="1" parent="1" source="KLBk__PiLaGitWqSj2PP-15" target="KLBk__PiLaGitWqSj2PP-21">
          <mxGeometry relative="1" as="geometry" />
        </mxCell>
        <mxCell id="KLBk__PiLaGitWqSj2PP-27" style="edgeStyle=orthogonalEdgeStyle;rounded=0;orthogonalLoop=1;jettySize=auto;html=1;entryX=0;entryY=0.5;entryDx=0;entryDy=0;" edge="1" parent="1" source="KLBk__PiLaGitWqSj2PP-15" target="KLBk__PiLaGitWqSj2PP-22">
          <mxGeometry relative="1" as="geometry" />
        </mxCell>
        <mxCell id="KLBk__PiLaGitWqSj2PP-15" value="&lt;div&gt;&lt;b&gt;[Product]&lt;/b&gt;&lt;/div&gt;Amazon SageMaker" style="rounded=1;whiteSpace=wrap;html=1;" vertex="1" parent="1">
          <mxGeometry x="210" y="523" width="120" height="60" as="geometry" />
        </mxCell>
        <mxCell id="KLBk__PiLaGitWqSj2PP-17" value="&lt;div&gt;&lt;b&gt;[Feature]&lt;/b&gt;&lt;/div&gt;&lt;div&gt;SageMaker Studio (ML development environment)&lt;br&gt;&lt;/div&gt;" style="rounded=1;whiteSpace=wrap;html=1;" vertex="1" parent="1">
          <mxGeometry x="400" y="523" width="120" height="60" as="geometry" />
        </mxCell>
        <mxCell id="KLBk__PiLaGitWqSj2PP-19" value="&lt;div&gt;&lt;b&gt;[Feature]&lt;/b&gt;&lt;/div&gt;SageMaker Autopilot (automation)" style="rounded=1;whiteSpace=wrap;html=1;" vertex="1" parent="1">
          <mxGeometry x="400" y="593" width="120" height="60" as="geometry" />
        </mxCell>
        <mxCell id="KLBk__PiLaGitWqSj2PP-20" value="&lt;div&gt;&lt;b&gt;[Feature]&lt;/b&gt;&lt;/div&gt;SageMaker Data Wrangler (data preparation)" style="rounded=1;whiteSpace=wrap;html=1;" vertex="1" parent="1">
          <mxGeometry x="400" y="663" width="120" height="60" as="geometry" />
        </mxCell>
        <mxCell id="KLBk__PiLaGitWqSj2PP-21" value="&lt;div&gt;&lt;b&gt;[Feature]&lt;/b&gt;&lt;/div&gt;SageMaker Experiments (ML experiments)" style="rounded=1;whiteSpace=wrap;html=1;" vertex="1" parent="1">
          <mxGeometry x="400" y="733" width="120" height="60" as="geometry" />
        </mxCell>
        <mxCell id="KLBk__PiLaGitWqSj2PP-22" value="&lt;div&gt;&lt;b&gt;[Feature]&lt;/b&gt;&lt;/div&gt;SageMaker Model Deployment (ML deployment)" style="rounded=1;whiteSpace=wrap;html=1;" vertex="1" parent="1">
          <mxGeometry x="400" y="803" width="120" height="60" as="geometry" />
        </mxCell>
        <mxCell id="KLBk__PiLaGitWqSj2PP-23" value="&lt;div&gt;&lt;b&gt;[Advantage]&lt;/b&gt;&lt;/div&gt;Scalability" style="rounded=1;whiteSpace=wrap;html=1;" vertex="1" parent="1">
          <mxGeometry x="550" y="523" width="120" height="60" as="geometry" />
        </mxCell>
        <mxCell id="KLBk__PiLaGitWqSj2PP-28" value="&lt;div&gt;&lt;b&gt;[Advantage]&lt;/b&gt;&lt;/div&gt;Flexibility" style="rounded=1;whiteSpace=wrap;html=1;" vertex="1" parent="1">
          <mxGeometry x="550" y="593" width="120" height="60" as="geometry" />
        </mxCell>
        <mxCell id="KLBk__PiLaGitWqSj2PP-29" value="&lt;div&gt;&lt;b&gt;[Advantage]&lt;/b&gt;&lt;/div&gt;Integration" style="rounded=1;whiteSpace=wrap;html=1;" vertex="1" parent="1">
          <mxGeometry x="550" y="663" width="120" height="60" as="geometry" />
        </mxCell>
        <mxCell id="KLBk__PiLaGitWqSj2PP-30" value="&lt;div&gt;&lt;b&gt;[Advantage]&lt;/b&gt;&lt;/div&gt;Ease of Use" style="rounded=1;whiteSpace=wrap;html=1;" vertex="1" parent="1">
          <mxGeometry x="550" y="733" width="120" height="60" as="geometry" />
        </mxCell>
        <mxCell id="KLBk__PiLaGitWqSj2PP-31" value="&lt;div&gt;&lt;b&gt;[Advantage]&lt;/b&gt;&lt;/div&gt;Fully Managed Service" style="rounded=1;whiteSpace=wrap;html=1;" vertex="1" parent="1">
          <mxGeometry x="550" y="803" width="120" height="60" as="geometry" />
        </mxCell>
        <mxCell id="KLBk__PiLaGitWqSj2PP-39" value="Features" style="text;html=1;align=center;verticalAlign=middle;whiteSpace=wrap;rounded=0;" vertex="1" parent="1">
          <mxGeometry x="429" y="60" width="60" height="30" as="geometry" />
        </mxCell>
        <mxCell id="KLBk__PiLaGitWqSj2PP-42" value="Advantages" style="text;html=1;align=center;verticalAlign=middle;whiteSpace=wrap;rounded=0;" vertex="1" parent="1">
          <mxGeometry x="580" y="60" width="60" height="30" as="geometry" />
        </mxCell>
        <mxCell id="KLBk__PiLaGitWqSj2PP-43" value="" style="rounded=0;whiteSpace=wrap;html=1;fillColor=#FF9999;" vertex="1" parent="1">
          <mxGeometry x="684" y="50" width="150" height="2070" as="geometry" />
        </mxCell>
        <mxCell id="KLBk__PiLaGitWqSj2PP-44" value="Disadvantages" style="text;html=1;align=center;verticalAlign=middle;whiteSpace=wrap;rounded=0;" vertex="1" parent="1">
          <mxGeometry x="729" y="60" width="60" height="30" as="geometry" />
        </mxCell>
        <mxCell id="KLBk__PiLaGitWqSj2PP-45" value="&lt;div&gt;&lt;b&gt;[Disadvantage]&lt;/b&gt;&lt;/div&gt;Higher Cost" style="rounded=1;whiteSpace=wrap;html=1;" vertex="1" parent="1">
          <mxGeometry x="699" y="110" width="120" height="60" as="geometry" />
        </mxCell>
        <mxCell id="KLBk__PiLaGitWqSj2PP-46" value="&lt;div&gt;&lt;b&gt;[Disadvantage]&lt;/b&gt;&lt;/div&gt;Complex Setup" style="rounded=1;whiteSpace=wrap;html=1;" vertex="1" parent="1">
          <mxGeometry x="699" y="180" width="120" height="60" as="geometry" />
        </mxCell>
        <mxCell id="KLBk__PiLaGitWqSj2PP-47" value="&lt;div&gt;&lt;b&gt;[Disadvantage]&lt;/b&gt;&lt;/div&gt;Terminology Challenges" style="rounded=1;whiteSpace=wrap;html=1;" vertex="1" parent="1">
          <mxGeometry x="699" y="250" width="120" height="60" as="geometry" />
        </mxCell>
        <mxCell id="KLBk__PiLaGitWqSj2PP-48" value="&lt;div&gt;&lt;b&gt;[Disadvantage]&lt;/b&gt;&lt;/div&gt;Limited Traffic Visibility" style="rounded=1;whiteSpace=wrap;html=1;" vertex="1" parent="1">
          <mxGeometry x="699" y="320" width="120" height="60" as="geometry" />
        </mxCell>
        <mxCell id="KLBk__PiLaGitWqSj2PP-49" value="&lt;div&gt;&lt;b&gt;[Disadvantage]&lt;/b&gt;&lt;/div&gt;Geographical Limitations" style="rounded=1;whiteSpace=wrap;html=1;" vertex="1" parent="1">
          <mxGeometry x="699" y="390" width="120" height="60" as="geometry" />
        </mxCell>
        <mxCell id="KLBk__PiLaGitWqSj2PP-55" value="&lt;div&gt;&lt;b&gt;[Advantage]&lt;/b&gt;&lt;/div&gt;Improved Application Performance" style="rounded=1;whiteSpace=wrap;html=1;" vertex="1" parent="1">
          <mxGeometry x="549" y="110" width="120" height="60" as="geometry" />
        </mxCell>
        <mxCell id="KLBk__PiLaGitWqSj2PP-56" value="&lt;div&gt;&lt;b&gt;[Advantage]&lt;/b&gt;&lt;/div&gt;Reduced Networking Costs" style="rounded=1;whiteSpace=wrap;html=1;" vertex="1" parent="1">
          <mxGeometry x="549" y="180" width="120" height="60" as="geometry" />
        </mxCell>
        <mxCell id="KLBk__PiLaGitWqSj2PP-57" value="&lt;div&gt;&lt;b&gt;[Advantage]&lt;/b&gt;&lt;/div&gt;Enhanced Security" style="rounded=1;whiteSpace=wrap;html=1;" vertex="1" parent="1">
          <mxGeometry x="549" y="250" width="120" height="60" as="geometry" />
        </mxCell>
        <mxCell id="KLBk__PiLaGitWqSj2PP-58" value="&lt;div&gt;&lt;b&gt;[Advantage]&lt;/b&gt;&lt;/div&gt;Consistent Network Performance" style="rounded=1;whiteSpace=wrap;html=1;" vertex="1" parent="1">
          <mxGeometry x="549" y="320" width="120" height="60" as="geometry" />
        </mxCell>
        <mxCell id="KLBk__PiLaGitWqSj2PP-59" value="&lt;div&gt;&lt;b&gt;[Advantage]&lt;/b&gt;&lt;/div&gt;Scalability" style="rounded=1;whiteSpace=wrap;html=1;" vertex="1" parent="1">
          <mxGeometry x="549" y="390" width="120" height="60" as="geometry" />
        </mxCell>
        <mxCell id="KLBk__PiLaGitWqSj2PP-60" value="&lt;div&gt;&lt;b&gt;[Disadvantage]&lt;/b&gt;&lt;/div&gt;Cost" style="rounded=1;whiteSpace=wrap;html=1;" vertex="1" parent="1">
          <mxGeometry x="699" y="523" width="120" height="60" as="geometry" />
        </mxCell>
        <mxCell id="KLBk__PiLaGitWqSj2PP-61" value="&lt;div&gt;&lt;b&gt;[Disadvantage]&lt;/b&gt;&lt;/div&gt;Vendor Lock-In" style="rounded=1;whiteSpace=wrap;html=1;" vertex="1" parent="1">
          <mxGeometry x="699" y="593" width="120" height="60" as="geometry" />
        </mxCell>
        <mxCell id="KLBk__PiLaGitWqSj2PP-62" value="&lt;div&gt;&lt;b&gt;[Disadvantage]&lt;/b&gt;&lt;/div&gt;Resource Management" style="rounded=1;whiteSpace=wrap;html=1;" vertex="1" parent="1">
          <mxGeometry x="699" y="663" width="120" height="60" as="geometry" />
        </mxCell>
        <mxCell id="KLBk__PiLaGitWqSj2PP-63" value="&lt;div&gt;&lt;b&gt;[Disadvantage]&lt;/b&gt;&lt;/div&gt;Complexity" style="rounded=1;whiteSpace=wrap;html=1;" vertex="1" parent="1">
          <mxGeometry x="699" y="733" width="120" height="60" as="geometry" />
        </mxCell>
        <mxCell id="KLBk__PiLaGitWqSj2PP-64" value="&lt;div&gt;&lt;b&gt;[Disadvantage]&lt;/b&gt;&lt;/div&gt;Limited Customization" style="rounded=1;whiteSpace=wrap;html=1;" vertex="1" parent="1">
          <mxGeometry x="699" y="803" width="120" height="60" as="geometry" />
        </mxCell>
        <mxCell id="KLBk__PiLaGitWqSj2PP-129" style="edgeStyle=orthogonalEdgeStyle;rounded=0;orthogonalLoop=1;jettySize=auto;html=1;" edge="1" parent="1" source="KLBk__PiLaGitWqSj2PP-65" target="KLBk__PiLaGitWqSj2PP-66">
          <mxGeometry relative="1" as="geometry" />
        </mxCell>
        <mxCell id="KLBk__PiLaGitWqSj2PP-130" style="edgeStyle=orthogonalEdgeStyle;rounded=0;orthogonalLoop=1;jettySize=auto;html=1;entryX=0;entryY=0.5;entryDx=0;entryDy=0;" edge="1" parent="1" source="KLBk__PiLaGitWqSj2PP-65" target="KLBk__PiLaGitWqSj2PP-67">
          <mxGeometry relative="1" as="geometry" />
        </mxCell>
        <mxCell id="KLBk__PiLaGitWqSj2PP-131" style="edgeStyle=orthogonalEdgeStyle;rounded=0;orthogonalLoop=1;jettySize=auto;html=1;entryX=0;entryY=0.5;entryDx=0;entryDy=0;" edge="1" parent="1" source="KLBk__PiLaGitWqSj2PP-65" target="KLBk__PiLaGitWqSj2PP-68">
          <mxGeometry relative="1" as="geometry" />
        </mxCell>
        <mxCell id="KLBk__PiLaGitWqSj2PP-132" style="edgeStyle=orthogonalEdgeStyle;rounded=0;orthogonalLoop=1;jettySize=auto;html=1;entryX=0;entryY=0.5;entryDx=0;entryDy=0;" edge="1" parent="1" source="KLBk__PiLaGitWqSj2PP-65" target="KLBk__PiLaGitWqSj2PP-69">
          <mxGeometry relative="1" as="geometry" />
        </mxCell>
        <mxCell id="KLBk__PiLaGitWqSj2PP-133" style="edgeStyle=orthogonalEdgeStyle;rounded=0;orthogonalLoop=1;jettySize=auto;html=1;entryX=0;entryY=0.5;entryDx=0;entryDy=0;" edge="1" parent="1" source="KLBk__PiLaGitWqSj2PP-65" target="KLBk__PiLaGitWqSj2PP-70">
          <mxGeometry relative="1" as="geometry" />
        </mxCell>
        <mxCell id="KLBk__PiLaGitWqSj2PP-65" value="&lt;div&gt;&lt;b&gt;[Product]&lt;/b&gt;&lt;/div&gt;AWS IoT Fleetwise" style="rounded=1;whiteSpace=wrap;html=1;" vertex="1" parent="1">
          <mxGeometry x="210" y="930" width="120" height="60" as="geometry" />
        </mxCell>
        <mxCell id="KLBk__PiLaGitWqSj2PP-66" value="&lt;div&gt;&lt;b&gt;[Feature]&lt;/b&gt;&lt;/div&gt;Vision system data (Preview)" style="rounded=1;whiteSpace=wrap;html=1;" vertex="1" parent="1">
          <mxGeometry x="400" y="930" width="120" height="60" as="geometry" />
        </mxCell>
        <mxCell id="KLBk__PiLaGitWqSj2PP-67" value="&lt;div&gt;&lt;b&gt;[Feature]&lt;/b&gt;&lt;/div&gt;Vehicle modeling" style="rounded=1;whiteSpace=wrap;html=1;" vertex="1" parent="1">
          <mxGeometry x="400" y="1000" width="120" height="60" as="geometry" />
        </mxCell>
        <mxCell id="KLBk__PiLaGitWqSj2PP-68" value="&lt;div&gt;&lt;b&gt;[Feature]&lt;/b&gt;&lt;/div&gt;Edge Agent" style="rounded=1;whiteSpace=wrap;html=1;" vertex="1" parent="1">
          <mxGeometry x="400" y="1070" width="120" height="60" as="geometry" />
        </mxCell>
        <mxCell id="KLBk__PiLaGitWqSj2PP-69" value="&lt;div&gt;&lt;b&gt;[Feature]&lt;/b&gt;&lt;/div&gt;Cloud-based configuration deployment" style="rounded=1;whiteSpace=wrap;html=1;" vertex="1" parent="1">
          <mxGeometry x="400" y="1140" width="120" height="60" as="geometry" />
        </mxCell>
        <mxCell id="KLBk__PiLaGitWqSj2PP-70" value="&lt;div&gt;&lt;b&gt;[Feature]&lt;/b&gt;&lt;/div&gt;Global signal catalog" style="rounded=1;whiteSpace=wrap;html=1;" vertex="1" parent="1">
          <mxGeometry x="400" y="1210" width="120" height="60" as="geometry" />
        </mxCell>
        <mxCell id="KLBk__PiLaGitWqSj2PP-71" value="&lt;div&gt;&lt;b&gt;[Advantage]&lt;/b&gt;&lt;/div&gt;Improved Data Relevance" style="rounded=1;whiteSpace=wrap;html=1;" vertex="1" parent="1">
          <mxGeometry x="550" y="930" width="120" height="60" as="geometry" />
        </mxCell>
        <mxCell id="KLBk__PiLaGitWqSj2PP-72" value="&lt;div&gt;&lt;b&gt;[Advantage]&lt;/b&gt;&lt;/div&gt;Enhanced Vehicle Quality" style="rounded=1;whiteSpace=wrap;html=1;" vertex="1" parent="1">
          <mxGeometry x="550" y="1000" width="120" height="60" as="geometry" />
        </mxCell>
        <mxCell id="KLBk__PiLaGitWqSj2PP-73" value="&lt;div&gt;&lt;b&gt;[Advantage]&lt;/b&gt;&lt;/div&gt;Unified Data View" style="rounded=1;whiteSpace=wrap;html=1;" vertex="1" parent="1">
          <mxGeometry x="550" y="1070" width="120" height="60" as="geometry" />
        </mxCell>
        <mxCell id="KLBk__PiLaGitWqSj2PP-74" value="&lt;div&gt;&lt;b&gt;[Advantage]&lt;/b&gt;&lt;/div&gt;Scalability" style="rounded=1;whiteSpace=wrap;html=1;" vertex="1" parent="1">
          <mxGeometry x="550" y="1140" width="120" height="60" as="geometry" />
        </mxCell>
        <mxCell id="KLBk__PiLaGitWqSj2PP-75" value="&lt;div&gt;&lt;b&gt;[Advantage]&lt;/b&gt;&lt;/div&gt;Integration with AI/ML Models" style="rounded=1;whiteSpace=wrap;html=1;" vertex="1" parent="1">
          <mxGeometry x="550" y="1210" width="120" height="60" as="geometry" />
        </mxCell>
        <mxCell id="KLBk__PiLaGitWqSj2PP-76" value="&lt;div&gt;&lt;b&gt;[Disadvantage]&lt;/b&gt;&lt;/div&gt;Geographical Limitations" style="rounded=1;whiteSpace=wrap;html=1;" vertex="1" parent="1">
          <mxGeometry x="699" y="930" width="120" height="60" as="geometry" />
        </mxCell>
        <mxCell id="KLBk__PiLaGitWqSj2PP-77" value="&lt;div&gt;&lt;b&gt;[Disadvantage]&lt;/b&gt;&lt;/div&gt;Higher Cost" style="rounded=1;whiteSpace=wrap;html=1;" vertex="1" parent="1">
          <mxGeometry x="699" y="1000" width="120" height="60" as="geometry" />
        </mxCell>
        <mxCell id="KLBk__PiLaGitWqSj2PP-78" value="&lt;div&gt;&lt;b&gt;[Disadvantage]&lt;/b&gt;&lt;/div&gt;Learning Curve" style="rounded=1;whiteSpace=wrap;html=1;" vertex="1" parent="1">
          <mxGeometry x="699" y="1070" width="120" height="60" as="geometry" />
        </mxCell>
        <mxCell id="KLBk__PiLaGitWqSj2PP-79" value="&lt;div&gt;&lt;b&gt;[Disadvantage]&lt;/b&gt;&lt;/div&gt;Dependency on AWS Ecosystem" style="rounded=1;whiteSpace=wrap;html=1;" vertex="1" parent="1">
          <mxGeometry x="699" y="1140" width="120" height="60" as="geometry" />
        </mxCell>
        <mxCell id="KLBk__PiLaGitWqSj2PP-80" value="&lt;div&gt;&lt;b&gt;[Disadvantage]&lt;/b&gt;&lt;/div&gt;Complex Setup" style="rounded=1;whiteSpace=wrap;html=1;" vertex="1" parent="1">
          <mxGeometry x="699" y="1210" width="120" height="60" as="geometry" />
        </mxCell>
        <mxCell id="KLBk__PiLaGitWqSj2PP-134" style="edgeStyle=orthogonalEdgeStyle;rounded=0;orthogonalLoop=1;jettySize=auto;html=1;" edge="1" parent="1" source="KLBk__PiLaGitWqSj2PP-97" target="KLBk__PiLaGitWqSj2PP-98">
          <mxGeometry relative="1" as="geometry" />
        </mxCell>
        <mxCell id="KLBk__PiLaGitWqSj2PP-135" style="edgeStyle=orthogonalEdgeStyle;rounded=0;orthogonalLoop=1;jettySize=auto;html=1;entryX=0;entryY=0.5;entryDx=0;entryDy=0;" edge="1" parent="1" source="KLBk__PiLaGitWqSj2PP-97" target="KLBk__PiLaGitWqSj2PP-99">
          <mxGeometry relative="1" as="geometry" />
        </mxCell>
        <mxCell id="KLBk__PiLaGitWqSj2PP-136" style="edgeStyle=orthogonalEdgeStyle;rounded=0;orthogonalLoop=1;jettySize=auto;html=1;entryX=0;entryY=0.5;entryDx=0;entryDy=0;" edge="1" parent="1" source="KLBk__PiLaGitWqSj2PP-97" target="KLBk__PiLaGitWqSj2PP-100">
          <mxGeometry relative="1" as="geometry" />
        </mxCell>
        <mxCell id="KLBk__PiLaGitWqSj2PP-137" style="edgeStyle=orthogonalEdgeStyle;rounded=0;orthogonalLoop=1;jettySize=auto;html=1;entryX=0;entryY=0.5;entryDx=0;entryDy=0;" edge="1" parent="1" source="KLBk__PiLaGitWqSj2PP-97" target="KLBk__PiLaGitWqSj2PP-101">
          <mxGeometry relative="1" as="geometry" />
        </mxCell>
        <mxCell id="KLBk__PiLaGitWqSj2PP-138" style="edgeStyle=orthogonalEdgeStyle;rounded=0;orthogonalLoop=1;jettySize=auto;html=1;entryX=0;entryY=0.5;entryDx=0;entryDy=0;" edge="1" parent="1" source="KLBk__PiLaGitWqSj2PP-97" target="KLBk__PiLaGitWqSj2PP-102">
          <mxGeometry relative="1" as="geometry" />
        </mxCell>
        <mxCell id="KLBk__PiLaGitWqSj2PP-97" value="&lt;div&gt;&lt;b&gt;[Product]&lt;/b&gt;&lt;/div&gt;AWS IoT Greengrass" style="rounded=1;whiteSpace=wrap;html=1;" vertex="1" parent="1">
          <mxGeometry x="210" y="1340" width="120" height="60" as="geometry" />
        </mxCell>
        <mxCell id="KLBk__PiLaGitWqSj2PP-98" value="&lt;div&gt;&lt;b&gt;[Feature]&lt;/b&gt;&lt;/div&gt;Local Processing" style="rounded=1;whiteSpace=wrap;html=1;" vertex="1" parent="1">
          <mxGeometry x="400" y="1340" width="120" height="60" as="geometry" />
        </mxCell>
        <mxCell id="KLBk__PiLaGitWqSj2PP-99" value="&lt;div&gt;&lt;b&gt;[Feature]&lt;/b&gt;&lt;/div&gt;Container Support" style="rounded=1;whiteSpace=wrap;html=1;" vertex="1" parent="1">
          <mxGeometry x="400" y="1410" width="120" height="60" as="geometry" />
        </mxCell>
        <mxCell id="KLBk__PiLaGitWqSj2PP-100" value="&lt;div&gt;&lt;b&gt;[Feature]&lt;/b&gt;&lt;/div&gt;Device Shadows" style="rounded=1;whiteSpace=wrap;html=1;" vertex="1" parent="1">
          <mxGeometry x="400" y="1480" width="120" height="60" as="geometry" />
        </mxCell>
        <mxCell id="KLBk__PiLaGitWqSj2PP-101" value="&lt;div&gt;&lt;b&gt;[Feature]&lt;/b&gt;&lt;/div&gt;Local Messaging" style="rounded=1;whiteSpace=wrap;html=1;" vertex="1" parent="1">
          <mxGeometry x="400" y="1550" width="120" height="60" as="geometry" />
        </mxCell>
        <mxCell id="KLBk__PiLaGitWqSj2PP-102" value="&lt;div&gt;&lt;b&gt;[Feature]&lt;/b&gt;&lt;/div&gt;Resource Access" style="rounded=1;whiteSpace=wrap;html=1;" vertex="1" parent="1">
          <mxGeometry x="400" y="1620" width="120" height="60" as="geometry" />
        </mxCell>
        <mxCell id="KLBk__PiLaGitWqSj2PP-103" value="&lt;div&gt;&lt;b&gt;[Advantage]&lt;/b&gt;&lt;/div&gt;Reduced Latency" style="rounded=1;whiteSpace=wrap;html=1;" vertex="1" parent="1">
          <mxGeometry x="550" y="1340" width="120" height="60" as="geometry" />
        </mxCell>
        <mxCell id="KLBk__PiLaGitWqSj2PP-104" value="&lt;div&gt;&lt;b&gt;[Advantage]&lt;/b&gt;&lt;/div&gt;Cost Efficiency" style="rounded=1;whiteSpace=wrap;html=1;" vertex="1" parent="1">
          <mxGeometry x="550" y="1410" width="120" height="60" as="geometry" />
        </mxCell>
        <mxCell id="KLBk__PiLaGitWqSj2PP-105" value="&lt;div&gt;&lt;b&gt;[Advantage]&lt;/b&gt;&lt;/div&gt;Enhanced Security" style="rounded=1;whiteSpace=wrap;html=1;" vertex="1" parent="1">
          <mxGeometry x="550" y="1480" width="120" height="60" as="geometry" />
        </mxCell>
        <mxCell id="KLBk__PiLaGitWqSj2PP-106" value="&lt;div&gt;&lt;b&gt;[Advantage]&lt;/b&gt;&lt;/div&gt;Scalability" style="rounded=1;whiteSpace=wrap;html=1;" vertex="1" parent="1">
          <mxGeometry x="550" y="1550" width="120" height="60" as="geometry" />
        </mxCell>
        <mxCell id="KLBk__PiLaGitWqSj2PP-107" value="&lt;div&gt;&lt;b&gt;[Advantage]&lt;/b&gt;&lt;/div&gt;Offline Functionality" style="rounded=1;whiteSpace=wrap;html=1;" vertex="1" parent="1">
          <mxGeometry x="550" y="1620" width="120" height="60" as="geometry" />
        </mxCell>
        <mxCell id="KLBk__PiLaGitWqSj2PP-108" value="&lt;div&gt;&lt;b&gt;[Disadvantage]&lt;/b&gt;&lt;/div&gt;Complex Setup" style="rounded=1;whiteSpace=wrap;html=1;" vertex="1" parent="1">
          <mxGeometry x="699" y="1340" width="120" height="60" as="geometry" />
        </mxCell>
        <mxCell id="KLBk__PiLaGitWqSj2PP-109" value="&lt;div&gt;&lt;b&gt;[Disadvantage]&lt;/b&gt;&lt;/div&gt;Higher Cost" style="rounded=1;whiteSpace=wrap;html=1;" vertex="1" parent="1">
          <mxGeometry x="699" y="1410" width="120" height="60" as="geometry" />
        </mxCell>
        <mxCell id="KLBk__PiLaGitWqSj2PP-110" value="&lt;div&gt;&lt;b&gt;[Disadvantage]&lt;/b&gt;&lt;/div&gt;Geographical Limitations" style="rounded=1;whiteSpace=wrap;html=1;" vertex="1" parent="1">
          <mxGeometry x="699" y="1480" width="120" height="60" as="geometry" />
        </mxCell>
        <mxCell id="KLBk__PiLaGitWqSj2PP-111" value="&lt;div&gt;&lt;b&gt;[Disadvantage]&lt;/b&gt;&lt;/div&gt;Learning Curve" style="rounded=1;whiteSpace=wrap;html=1;" vertex="1" parent="1">
          <mxGeometry x="699" y="1550" width="120" height="60" as="geometry" />
        </mxCell>
        <mxCell id="KLBk__PiLaGitWqSj2PP-112" value="&lt;div&gt;&lt;b&gt;[Disadvantage]&lt;/b&gt;&lt;/div&gt;Dependency on AWS Ecosystem" style="rounded=1;whiteSpace=wrap;html=1;" vertex="1" parent="1">
          <mxGeometry x="699" y="1620" width="120" height="60" as="geometry" />
        </mxCell>
        <mxCell id="KLBk__PiLaGitWqSj2PP-139" style="edgeStyle=orthogonalEdgeStyle;rounded=0;orthogonalLoop=1;jettySize=auto;html=1;" edge="1" parent="1" source="KLBk__PiLaGitWqSj2PP-113" target="KLBk__PiLaGitWqSj2PP-114">
          <mxGeometry relative="1" as="geometry" />
        </mxCell>
        <mxCell id="KLBk__PiLaGitWqSj2PP-140" style="edgeStyle=orthogonalEdgeStyle;rounded=0;orthogonalLoop=1;jettySize=auto;html=1;entryX=0;entryY=0.5;entryDx=0;entryDy=0;" edge="1" parent="1" source="KLBk__PiLaGitWqSj2PP-113" target="KLBk__PiLaGitWqSj2PP-115">
          <mxGeometry relative="1" as="geometry" />
        </mxCell>
        <mxCell id="KLBk__PiLaGitWqSj2PP-141" style="edgeStyle=orthogonalEdgeStyle;rounded=0;orthogonalLoop=1;jettySize=auto;html=1;entryX=0;entryY=0.5;entryDx=0;entryDy=0;" edge="1" parent="1" source="KLBk__PiLaGitWqSj2PP-113" target="KLBk__PiLaGitWqSj2PP-116">
          <mxGeometry relative="1" as="geometry" />
        </mxCell>
        <mxCell id="KLBk__PiLaGitWqSj2PP-142" style="edgeStyle=orthogonalEdgeStyle;rounded=0;orthogonalLoop=1;jettySize=auto;html=1;entryX=0;entryY=0.5;entryDx=0;entryDy=0;" edge="1" parent="1" source="KLBk__PiLaGitWqSj2PP-113" target="KLBk__PiLaGitWqSj2PP-117">
          <mxGeometry relative="1" as="geometry" />
        </mxCell>
        <mxCell id="KLBk__PiLaGitWqSj2PP-143" style="edgeStyle=orthogonalEdgeStyle;rounded=0;orthogonalLoop=1;jettySize=auto;html=1;entryX=0;entryY=0.5;entryDx=0;entryDy=0;" edge="1" parent="1" source="KLBk__PiLaGitWqSj2PP-113" target="KLBk__PiLaGitWqSj2PP-118">
          <mxGeometry relative="1" as="geometry" />
        </mxCell>
        <mxCell id="KLBk__PiLaGitWqSj2PP-113" value="&lt;div&gt;&lt;b&gt;[Product]&lt;/b&gt;&lt;/div&gt;AWS IoT Core" style="rounded=1;whiteSpace=wrap;html=1;" vertex="1" parent="1">
          <mxGeometry x="210" y="1754" width="120" height="60" as="geometry" />
        </mxCell>
        <mxCell id="KLBk__PiLaGitWqSj2PP-114" value="&lt;div&gt;&lt;b&gt;[Feature]&lt;/b&gt;&lt;/div&gt;Device Gateway" style="rounded=1;whiteSpace=wrap;html=1;" vertex="1" parent="1">
          <mxGeometry x="400" y="1754" width="120" height="60" as="geometry" />
        </mxCell>
        <mxCell id="KLBk__PiLaGitWqSj2PP-115" value="&lt;div&gt;&lt;b&gt;[Feature]&lt;/b&gt;&lt;/div&gt;Message Broker" style="rounded=1;whiteSpace=wrap;html=1;" vertex="1" parent="1">
          <mxGeometry x="400" y="1824" width="120" height="60" as="geometry" />
        </mxCell>
        <mxCell id="KLBk__PiLaGitWqSj2PP-116" value="&lt;div&gt;&lt;b&gt;[Feature]&lt;/b&gt;&lt;/div&gt;Device Shadows" style="rounded=1;whiteSpace=wrap;html=1;" vertex="1" parent="1">
          <mxGeometry x="400" y="1894" width="120" height="60" as="geometry" />
        </mxCell>
        <mxCell id="KLBk__PiLaGitWqSj2PP-117" value="&lt;div&gt;&lt;b&gt;[Feature]&lt;/b&gt;&lt;/div&gt;Rules Engine" style="rounded=1;whiteSpace=wrap;html=1;" vertex="1" parent="1">
          <mxGeometry x="400" y="1964" width="120" height="60" as="geometry" />
        </mxCell>
        <mxCell id="KLBk__PiLaGitWqSj2PP-118" value="&lt;div&gt;&lt;b&gt;[Feature]&lt;/b&gt;&lt;/div&gt;Device Management" style="rounded=1;whiteSpace=wrap;html=1;" vertex="1" parent="1">
          <mxGeometry x="400" y="2034" width="120" height="60" as="geometry" />
        </mxCell>
        <mxCell id="KLBk__PiLaGitWqSj2PP-119" value="&lt;div&gt;&lt;b&gt;[Advantage]&lt;/b&gt;&lt;/div&gt;Scalability" style="rounded=1;whiteSpace=wrap;html=1;" vertex="1" parent="1">
          <mxGeometry x="550" y="1754" width="120" height="60" as="geometry" />
        </mxCell>
        <mxCell id="KLBk__PiLaGitWqSj2PP-120" value="&lt;div&gt;&lt;b&gt;[Advantage]&lt;/b&gt;&lt;/div&gt;Flexibility" style="rounded=1;whiteSpace=wrap;html=1;" vertex="1" parent="1">
          <mxGeometry x="550" y="1824" width="120" height="60" as="geometry" />
        </mxCell>
        <mxCell id="KLBk__PiLaGitWqSj2PP-121" value="&lt;div&gt;&lt;b&gt;[Advantage]&lt;/b&gt;&lt;/div&gt;Security" style="rounded=1;whiteSpace=wrap;html=1;" vertex="1" parent="1">
          <mxGeometry x="550" y="1894" width="120" height="60" as="geometry" />
        </mxCell>
        <mxCell id="KLBk__PiLaGitWqSj2PP-122" value="&lt;div&gt;&lt;b&gt;[Advantage]&lt;/b&gt;&lt;/div&gt;Reliability" style="rounded=1;whiteSpace=wrap;html=1;" vertex="1" parent="1">
          <mxGeometry x="550" y="1964" width="120" height="60" as="geometry" />
        </mxCell>
        <mxCell id="KLBk__PiLaGitWqSj2PP-123" value="&lt;div&gt;&lt;b&gt;[Advantage]&lt;/b&gt;&lt;/div&gt;Simplified workflow" style="rounded=1;whiteSpace=wrap;html=1;" vertex="1" parent="1">
          <mxGeometry x="550" y="2034" width="120" height="60" as="geometry" />
        </mxCell>
        <mxCell id="KLBk__PiLaGitWqSj2PP-124" value="&lt;div&gt;&lt;b&gt;[Disadvantage]&lt;/b&gt;&lt;/div&gt;Complex Setup" style="rounded=1;whiteSpace=wrap;html=1;" vertex="1" parent="1">
          <mxGeometry x="699" y="1754" width="120" height="60" as="geometry" />
        </mxCell>
        <mxCell id="KLBk__PiLaGitWqSj2PP-125" value="&lt;div&gt;&lt;b&gt;[Disadvantage]&lt;/b&gt;&lt;/div&gt;Higher Cost" style="rounded=1;whiteSpace=wrap;html=1;" vertex="1" parent="1">
          <mxGeometry x="699" y="1824" width="120" height="60" as="geometry" />
        </mxCell>
        <mxCell id="KLBk__PiLaGitWqSj2PP-126" value="&lt;div&gt;&lt;b&gt;[Disadvantage]&lt;/b&gt;&lt;/div&gt;Dependency on AWS Ecosystem" style="rounded=1;whiteSpace=wrap;html=1;" vertex="1" parent="1">
          <mxGeometry x="699" y="1894" width="120" height="60" as="geometry" />
        </mxCell>
        <mxCell id="KLBk__PiLaGitWqSj2PP-127" value="&lt;div&gt;&lt;b&gt;[Disadvantage]&lt;/b&gt;&lt;/div&gt;Geographical Limitations" style="rounded=1;whiteSpace=wrap;html=1;" vertex="1" parent="1">
          <mxGeometry x="699" y="1964" width="120" height="60" as="geometry" />
        </mxCell>
        <mxCell id="KLBk__PiLaGitWqSj2PP-128" value="&lt;div&gt;&lt;b&gt;[Disadvantage]&lt;/b&gt;&lt;/div&gt;Learning Curve" style="rounded=1;whiteSpace=wrap;html=1;" vertex="1" parent="1">
          <mxGeometry x="699" y="2034" width="120" height="60" as="geometry" />
        </mxCell>
        <mxCell id="Gp7sAnvTN2membX1ZgTw-1" value="" style="rounded=0;whiteSpace=wrap;html=1;fillColor=#99CCFF;" vertex="1" parent="1">
          <mxGeometry x="1494" y="50" width="150" height="2070" as="geometry" />
        </mxCell>
        <mxCell id="Gp7sAnvTN2membX1ZgTw-2" value="" style="rounded=0;whiteSpace=wrap;html=1;fillColor=#99FF99;" vertex="1" parent="1">
          <mxGeometry x="1344" y="50" width="150" height="2070" as="geometry" />
        </mxCell>
        <mxCell id="Gp7sAnvTN2membX1ZgTw-3" style="edgeStyle=orthogonalEdgeStyle;rounded=0;orthogonalLoop=1;jettySize=auto;html=1;entryX=0;entryY=0.5;entryDx=0;entryDy=0;" edge="1" parent="1" source="Gp7sAnvTN2membX1ZgTw-8" target="Gp7sAnvTN2membX1ZgTw-14">
          <mxGeometry relative="1" as="geometry" />
        </mxCell>
        <mxCell id="Gp7sAnvTN2membX1ZgTw-4" style="edgeStyle=orthogonalEdgeStyle;rounded=0;orthogonalLoop=1;jettySize=auto;html=1;entryX=0;entryY=0.5;entryDx=0;entryDy=0;" edge="1" parent="1" source="Gp7sAnvTN2membX1ZgTw-8" target="Gp7sAnvTN2membX1ZgTw-25">
          <mxGeometry relative="1" as="geometry" />
        </mxCell>
        <mxCell id="Gp7sAnvTN2membX1ZgTw-5" style="edgeStyle=orthogonalEdgeStyle;rounded=0;orthogonalLoop=1;jettySize=auto;html=1;entryX=0;entryY=0.5;entryDx=0;entryDy=0;" edge="1" parent="1" source="Gp7sAnvTN2membX1ZgTw-8" target="Gp7sAnvTN2membX1ZgTw-60">
          <mxGeometry relative="1" as="geometry" />
        </mxCell>
        <mxCell id="Gp7sAnvTN2membX1ZgTw-6" style="edgeStyle=orthogonalEdgeStyle;rounded=0;orthogonalLoop=1;jettySize=auto;html=1;entryX=0;entryY=0.5;entryDx=0;entryDy=0;" edge="1" parent="1" source="Gp7sAnvTN2membX1ZgTw-8" target="Gp7sAnvTN2membX1ZgTw-81">
          <mxGeometry relative="1" as="geometry" />
        </mxCell>
        <mxCell id="Gp7sAnvTN2membX1ZgTw-7" style="edgeStyle=orthogonalEdgeStyle;rounded=0;orthogonalLoop=1;jettySize=auto;html=1;entryX=0;entryY=0.5;entryDx=0;entryDy=0;" edge="1" parent="1" source="Gp7sAnvTN2membX1ZgTw-8" target="Gp7sAnvTN2membX1ZgTw-102">
          <mxGeometry relative="1" as="geometry" />
        </mxCell>
        <mxCell id="Gp7sAnvTN2membX1ZgTw-8" value="Games Industry" style="rounded=1;whiteSpace=wrap;html=1;" vertex="1" parent="1">
          <mxGeometry x="980" y="110" width="120" height="60" as="geometry" />
        </mxCell>
        <mxCell id="Gp7sAnvTN2membX1ZgTw-150" style="edgeStyle=orthogonalEdgeStyle;rounded=0;orthogonalLoop=1;jettySize=auto;html=1;" edge="1" parent="1" source="Gp7sAnvTN2membX1ZgTw-14" target="Gp7sAnvTN2membX1ZgTw-135">
          <mxGeometry relative="1" as="geometry" />
        </mxCell>
        <mxCell id="Gp7sAnvTN2membX1ZgTw-151" style="edgeStyle=orthogonalEdgeStyle;rounded=0;orthogonalLoop=1;jettySize=auto;html=1;entryX=0;entryY=0.5;entryDx=0;entryDy=0;" edge="1" parent="1" source="Gp7sAnvTN2membX1ZgTw-14" target="Gp7sAnvTN2membX1ZgTw-136">
          <mxGeometry relative="1" as="geometry" />
        </mxCell>
        <mxCell id="Gp7sAnvTN2membX1ZgTw-152" style="edgeStyle=orthogonalEdgeStyle;rounded=0;orthogonalLoop=1;jettySize=auto;html=1;entryX=0;entryY=0.5;entryDx=0;entryDy=0;" edge="1" parent="1" source="Gp7sAnvTN2membX1ZgTw-14" target="Gp7sAnvTN2membX1ZgTw-137">
          <mxGeometry relative="1" as="geometry" />
        </mxCell>
        <mxCell id="Gp7sAnvTN2membX1ZgTw-153" style="edgeStyle=orthogonalEdgeStyle;rounded=0;orthogonalLoop=1;jettySize=auto;html=1;entryX=0;entryY=0.5;entryDx=0;entryDy=0;" edge="1" parent="1" source="Gp7sAnvTN2membX1ZgTw-14" target="Gp7sAnvTN2membX1ZgTw-138">
          <mxGeometry relative="1" as="geometry" />
        </mxCell>
        <mxCell id="Gp7sAnvTN2membX1ZgTw-154" style="edgeStyle=orthogonalEdgeStyle;rounded=0;orthogonalLoop=1;jettySize=auto;html=1;entryX=0;entryY=0.5;entryDx=0;entryDy=0;" edge="1" parent="1" source="Gp7sAnvTN2membX1ZgTw-14" target="Gp7sAnvTN2membX1ZgTw-139">
          <mxGeometry relative="1" as="geometry" />
        </mxCell>
        <mxCell id="Gp7sAnvTN2membX1ZgTw-14" value="&lt;div&gt;&lt;b&gt;[Product]&lt;/b&gt;&lt;/div&gt;Amazon GameLift" style="rounded=1;whiteSpace=wrap;html=1;" vertex="1" parent="1">
          <mxGeometry x="1170" y="110" width="120" height="60" as="geometry" />
        </mxCell>
        <mxCell id="Gp7sAnvTN2membX1ZgTw-155" style="edgeStyle=orthogonalEdgeStyle;rounded=0;orthogonalLoop=1;jettySize=auto;html=1;entryX=0;entryY=0.5;entryDx=0;entryDy=0;" edge="1" parent="1" source="Gp7sAnvTN2membX1ZgTw-25" target="Gp7sAnvTN2membX1ZgTw-118">
          <mxGeometry relative="1" as="geometry" />
        </mxCell>
        <mxCell id="Gp7sAnvTN2membX1ZgTw-156" style="edgeStyle=orthogonalEdgeStyle;rounded=0;orthogonalLoop=1;jettySize=auto;html=1;entryX=0;entryY=0.5;entryDx=0;entryDy=0;" edge="1" parent="1" source="Gp7sAnvTN2membX1ZgTw-25" target="Gp7sAnvTN2membX1ZgTw-119">
          <mxGeometry relative="1" as="geometry" />
        </mxCell>
        <mxCell id="Gp7sAnvTN2membX1ZgTw-157" style="edgeStyle=orthogonalEdgeStyle;rounded=0;orthogonalLoop=1;jettySize=auto;html=1;entryX=0;entryY=0.5;entryDx=0;entryDy=0;" edge="1" parent="1" source="Gp7sAnvTN2membX1ZgTw-25" target="Gp7sAnvTN2membX1ZgTw-120">
          <mxGeometry relative="1" as="geometry" />
        </mxCell>
        <mxCell id="Gp7sAnvTN2membX1ZgTw-158" style="edgeStyle=orthogonalEdgeStyle;rounded=0;orthogonalLoop=1;jettySize=auto;html=1;entryX=0;entryY=0.5;entryDx=0;entryDy=0;" edge="1" parent="1" source="Gp7sAnvTN2membX1ZgTw-25" target="Gp7sAnvTN2membX1ZgTw-121">
          <mxGeometry relative="1" as="geometry" />
        </mxCell>
        <mxCell id="Gp7sAnvTN2membX1ZgTw-159" style="edgeStyle=orthogonalEdgeStyle;rounded=0;orthogonalLoop=1;jettySize=auto;html=1;entryX=0;entryY=0.5;entryDx=0;entryDy=0;" edge="1" parent="1" source="Gp7sAnvTN2membX1ZgTw-25" target="Gp7sAnvTN2membX1ZgTw-122">
          <mxGeometry relative="1" as="geometry" />
        </mxCell>
        <mxCell id="Gp7sAnvTN2membX1ZgTw-25" value="&lt;div&gt;&lt;b&gt;[Product]&lt;/b&gt;&lt;/div&gt;Amazon CloudWatch" style="rounded=1;whiteSpace=wrap;html=1;" vertex="1" parent="1">
          <mxGeometry x="1170" y="523" width="120" height="60" as="geometry" />
        </mxCell>
        <mxCell id="Gp7sAnvTN2membX1ZgTw-36" value="Features" style="text;html=1;align=center;verticalAlign=middle;whiteSpace=wrap;rounded=0;" vertex="1" parent="1">
          <mxGeometry x="1389" y="60" width="60" height="30" as="geometry" />
        </mxCell>
        <mxCell id="Gp7sAnvTN2membX1ZgTw-37" value="Advantages" style="text;html=1;align=center;verticalAlign=middle;whiteSpace=wrap;rounded=0;" vertex="1" parent="1">
          <mxGeometry x="1540" y="60" width="60" height="30" as="geometry" />
        </mxCell>
        <mxCell id="Gp7sAnvTN2membX1ZgTw-38" value="" style="rounded=0;whiteSpace=wrap;html=1;fillColor=#FF9999;" vertex="1" parent="1">
          <mxGeometry x="1644" y="50" width="150" height="2070" as="geometry" />
        </mxCell>
        <mxCell id="Gp7sAnvTN2membX1ZgTw-39" value="Disadvantages" style="text;html=1;align=center;verticalAlign=middle;whiteSpace=wrap;rounded=0;" vertex="1" parent="1">
          <mxGeometry x="1689" y="60" width="60" height="30" as="geometry" />
        </mxCell>
        <mxCell id="Gp7sAnvTN2membX1ZgTw-55" style="edgeStyle=orthogonalEdgeStyle;rounded=0;orthogonalLoop=1;jettySize=auto;html=1;" edge="1" parent="1" source="Gp7sAnvTN2membX1ZgTw-60" target="Gp7sAnvTN2membX1ZgTw-61">
          <mxGeometry relative="1" as="geometry" />
        </mxCell>
        <mxCell id="Gp7sAnvTN2membX1ZgTw-56" style="edgeStyle=orthogonalEdgeStyle;rounded=0;orthogonalLoop=1;jettySize=auto;html=1;entryX=0;entryY=0.5;entryDx=0;entryDy=0;" edge="1" parent="1" source="Gp7sAnvTN2membX1ZgTw-60" target="Gp7sAnvTN2membX1ZgTw-62">
          <mxGeometry relative="1" as="geometry" />
        </mxCell>
        <mxCell id="Gp7sAnvTN2membX1ZgTw-57" style="edgeStyle=orthogonalEdgeStyle;rounded=0;orthogonalLoop=1;jettySize=auto;html=1;entryX=0;entryY=0.5;entryDx=0;entryDy=0;" edge="1" parent="1" source="Gp7sAnvTN2membX1ZgTw-60" target="Gp7sAnvTN2membX1ZgTw-63">
          <mxGeometry relative="1" as="geometry" />
        </mxCell>
        <mxCell id="Gp7sAnvTN2membX1ZgTw-58" style="edgeStyle=orthogonalEdgeStyle;rounded=0;orthogonalLoop=1;jettySize=auto;html=1;entryX=0;entryY=0.5;entryDx=0;entryDy=0;" edge="1" parent="1" source="Gp7sAnvTN2membX1ZgTw-60" target="Gp7sAnvTN2membX1ZgTw-64">
          <mxGeometry relative="1" as="geometry" />
        </mxCell>
        <mxCell id="Gp7sAnvTN2membX1ZgTw-59" style="edgeStyle=orthogonalEdgeStyle;rounded=0;orthogonalLoop=1;jettySize=auto;html=1;entryX=0;entryY=0.5;entryDx=0;entryDy=0;" edge="1" parent="1" source="Gp7sAnvTN2membX1ZgTw-60" target="Gp7sAnvTN2membX1ZgTw-65">
          <mxGeometry relative="1" as="geometry" />
        </mxCell>
        <mxCell id="Gp7sAnvTN2membX1ZgTw-60" value="&lt;div&gt;&lt;b&gt;[Product]&lt;/b&gt;&lt;/div&gt;AWS Deadline Cloud" style="rounded=1;whiteSpace=wrap;html=1;" vertex="1" parent="1">
          <mxGeometry x="1170" y="930" width="120" height="60" as="geometry" />
        </mxCell>
        <mxCell id="Gp7sAnvTN2membX1ZgTw-61" value="&lt;div&gt;&lt;b&gt;[Feature]&lt;/b&gt;&lt;/div&gt;Fully Managed Service" style="rounded=1;whiteSpace=wrap;html=1;" vertex="1" parent="1">
          <mxGeometry x="1360" y="930" width="120" height="60" as="geometry" />
        </mxCell>
        <mxCell id="Gp7sAnvTN2membX1ZgTw-62" value="&lt;div&gt;&lt;b&gt;[Feature]&lt;/b&gt;&lt;/div&gt;Customer-Managed Fleets" style="rounded=1;whiteSpace=wrap;html=1;" vertex="1" parent="1">
          <mxGeometry x="1360" y="1000" width="120" height="60" as="geometry" />
        </mxCell>
        <mxCell id="Gp7sAnvTN2membX1ZgTw-63" value="&lt;div&gt;&lt;b&gt;[Feature]&lt;/b&gt;&lt;/div&gt;Creative Tool Support" style="rounded=1;whiteSpace=wrap;html=1;" vertex="1" parent="1">
          <mxGeometry x="1360" y="1070" width="120" height="60" as="geometry" />
        </mxCell>
        <mxCell id="Gp7sAnvTN2membX1ZgTw-64" value="&lt;div&gt;&lt;b&gt;[Feature]&lt;/b&gt;&lt;/div&gt;Custom integrations" style="rounded=1;whiteSpace=wrap;html=1;" vertex="1" parent="1">
          <mxGeometry x="1360" y="1140" width="120" height="60" as="geometry" />
        </mxCell>
        <mxCell id="Gp7sAnvTN2membX1ZgTw-65" value="&lt;div&gt;&lt;b&gt;[Feature]&lt;/b&gt;&lt;/div&gt;Open standard for job submissions" style="rounded=1;whiteSpace=wrap;html=1;" vertex="1" parent="1">
          <mxGeometry x="1360" y="1210" width="120" height="60" as="geometry" />
        </mxCell>
        <mxCell id="Gp7sAnvTN2membX1ZgTw-66" value="&lt;div&gt;&lt;b&gt;[Advantage]&lt;/b&gt;&lt;/div&gt;Dynamic Scaling" style="rounded=1;whiteSpace=wrap;html=1;" vertex="1" parent="1">
          <mxGeometry x="1510" y="930" width="120" height="60" as="geometry" />
        </mxCell>
        <mxCell id="Gp7sAnvTN2membX1ZgTw-67" value="&lt;div&gt;&lt;b&gt;[Advantage]&lt;/b&gt;&lt;/div&gt;Cost management" style="rounded=1;whiteSpace=wrap;html=1;" vertex="1" parent="1">
          <mxGeometry x="1510" y="1000" width="120" height="60" as="geometry" />
        </mxCell>
        <mxCell id="Gp7sAnvTN2membX1ZgTw-68" value="&lt;div&gt;&lt;b&gt;[Advantage]&lt;/b&gt;&lt;/div&gt;Efficiency" style="rounded=1;whiteSpace=wrap;html=1;" vertex="1" parent="1">
          <mxGeometry x="1510" y="1070" width="120" height="60" as="geometry" />
        </mxCell>
        <mxCell id="Gp7sAnvTN2membX1ZgTw-69" value="&lt;div&gt;&lt;b&gt;[Advantage]&lt;/b&gt;&lt;/div&gt;Parallel Processing" style="rounded=1;whiteSpace=wrap;html=1;" vertex="1" parent="1">
          <mxGeometry x="1510" y="1140" width="120" height="60" as="geometry" />
        </mxCell>
        <mxCell id="Gp7sAnvTN2membX1ZgTw-70" value="&lt;div&gt;&lt;b&gt;[Advantage]&lt;/b&gt;&lt;/div&gt;Usage-Based Licensing" style="rounded=1;whiteSpace=wrap;html=1;" vertex="1" parent="1">
          <mxGeometry x="1510" y="1210" width="120" height="60" as="geometry" />
        </mxCell>
        <mxCell id="Gp7sAnvTN2membX1ZgTw-71" value="&lt;div&gt;&lt;b&gt;[Disadvantage]&lt;/b&gt;&lt;/div&gt;Complex Setup" style="rounded=1;whiteSpace=wrap;html=1;" vertex="1" parent="1">
          <mxGeometry x="1659" y="930" width="120" height="60" as="geometry" />
        </mxCell>
        <mxCell id="Gp7sAnvTN2membX1ZgTw-72" value="&lt;div&gt;&lt;b&gt;[Disadvantage]&lt;/b&gt;&lt;/div&gt;Cost" style="rounded=1;whiteSpace=wrap;html=1;" vertex="1" parent="1">
          <mxGeometry x="1659" y="1000" width="120" height="60" as="geometry" />
        </mxCell>
        <mxCell id="Gp7sAnvTN2membX1ZgTw-73" value="&lt;div&gt;&lt;b&gt;[Disadvantage]&lt;/b&gt;&lt;/div&gt;Limited On-Premises Integration" style="rounded=1;whiteSpace=wrap;html=1;" vertex="1" parent="1">
          <mxGeometry x="1659" y="1070" width="120" height="60" as="geometry" />
        </mxCell>
        <mxCell id="Gp7sAnvTN2membX1ZgTw-74" value="&lt;div&gt;&lt;b&gt;[Disadvantage]&lt;/b&gt;&lt;/div&gt;Resource Management" style="rounded=1;whiteSpace=wrap;html=1;" vertex="1" parent="1">
          <mxGeometry x="1659" y="1140" width="120" height="60" as="geometry" />
        </mxCell>
        <mxCell id="Gp7sAnvTN2membX1ZgTw-75" value="&lt;div&gt;&lt;b&gt;[Disadvantage]&lt;/b&gt;&lt;/div&gt;Learning Curve" style="rounded=1;whiteSpace=wrap;html=1;" vertex="1" parent="1">
          <mxGeometry x="1659" y="1210" width="120" height="60" as="geometry" />
        </mxCell>
        <mxCell id="Gp7sAnvTN2membX1ZgTw-76" style="edgeStyle=orthogonalEdgeStyle;rounded=0;orthogonalLoop=1;jettySize=auto;html=1;" edge="1" parent="1" source="Gp7sAnvTN2membX1ZgTw-81" target="Gp7sAnvTN2membX1ZgTw-82">
          <mxGeometry relative="1" as="geometry" />
        </mxCell>
        <mxCell id="Gp7sAnvTN2membX1ZgTw-77" style="edgeStyle=orthogonalEdgeStyle;rounded=0;orthogonalLoop=1;jettySize=auto;html=1;entryX=0;entryY=0.5;entryDx=0;entryDy=0;" edge="1" parent="1" source="Gp7sAnvTN2membX1ZgTw-81" target="Gp7sAnvTN2membX1ZgTw-83">
          <mxGeometry relative="1" as="geometry" />
        </mxCell>
        <mxCell id="Gp7sAnvTN2membX1ZgTw-78" style="edgeStyle=orthogonalEdgeStyle;rounded=0;orthogonalLoop=1;jettySize=auto;html=1;entryX=0;entryY=0.5;entryDx=0;entryDy=0;" edge="1" parent="1" source="Gp7sAnvTN2membX1ZgTw-81" target="Gp7sAnvTN2membX1ZgTw-84">
          <mxGeometry relative="1" as="geometry" />
        </mxCell>
        <mxCell id="Gp7sAnvTN2membX1ZgTw-79" style="edgeStyle=orthogonalEdgeStyle;rounded=0;orthogonalLoop=1;jettySize=auto;html=1;entryX=0;entryY=0.5;entryDx=0;entryDy=0;" edge="1" parent="1" source="Gp7sAnvTN2membX1ZgTw-81" target="Gp7sAnvTN2membX1ZgTw-85">
          <mxGeometry relative="1" as="geometry" />
        </mxCell>
        <mxCell id="Gp7sAnvTN2membX1ZgTw-80" style="edgeStyle=orthogonalEdgeStyle;rounded=0;orthogonalLoop=1;jettySize=auto;html=1;entryX=0;entryY=0.5;entryDx=0;entryDy=0;" edge="1" parent="1" source="Gp7sAnvTN2membX1ZgTw-81" target="Gp7sAnvTN2membX1ZgTw-86">
          <mxGeometry relative="1" as="geometry" />
        </mxCell>
        <mxCell id="Gp7sAnvTN2membX1ZgTw-81" value="&lt;div&gt;&lt;b&gt;[Product]&lt;/b&gt;&lt;/div&gt;Amazon Athena" style="rounded=1;whiteSpace=wrap;html=1;" vertex="1" parent="1">
          <mxGeometry x="1170" y="1340" width="120" height="60" as="geometry" />
        </mxCell>
        <mxCell id="Gp7sAnvTN2membX1ZgTw-82" value="&lt;div&gt;&lt;b&gt;[Feature]&lt;/b&gt;&lt;/div&gt;Serverless. Zero infrastructure. Zero administration." style="rounded=1;whiteSpace=wrap;html=1;" vertex="1" parent="1">
          <mxGeometry x="1360" y="1340" width="120" height="60" as="geometry" />
        </mxCell>
        <mxCell id="Gp7sAnvTN2membX1ZgTw-83" value="&lt;div&gt;&lt;b&gt;[Feature]&lt;/b&gt;&lt;/div&gt;Easy to query, just use standard SQL" style="rounded=1;whiteSpace=wrap;html=1;" vertex="1" parent="1">
          <mxGeometry x="1360" y="1410" width="120" height="60" as="geometry" />
        </mxCell>
        <mxCell id="Gp7sAnvTN2membX1ZgTw-84" value="&lt;div&gt;&lt;b&gt;[Feature]&lt;/b&gt;&lt;/div&gt;Flexible Data Formats" style="rounded=1;whiteSpace=wrap;html=1;" vertex="1" parent="1">
          <mxGeometry x="1360" y="1480" width="120" height="60" as="geometry" />
        </mxCell>
        <mxCell id="Gp7sAnvTN2membX1ZgTw-85" value="&lt;div&gt;&lt;b&gt;[Feature]&lt;/b&gt;&lt;/div&gt;&amp;nbsp;Perform data analytics" style="rounded=1;whiteSpace=wrap;html=1;" vertex="1" parent="1">
          <mxGeometry x="1360" y="1550" width="120" height="60" as="geometry" />
        </mxCell>
        <mxCell id="Gp7sAnvTN2membX1ZgTw-86" value="&lt;div&gt;&lt;b&gt;[Feature]&lt;/b&gt;&lt;/div&gt;&amp;nbsp;Run interactive queries" style="rounded=1;whiteSpace=wrap;html=1;" vertex="1" parent="1">
          <mxGeometry x="1360" y="1620" width="120" height="60" as="geometry" />
        </mxCell>
        <mxCell id="Gp7sAnvTN2membX1ZgTw-87" value="&lt;div&gt;&lt;b&gt;[Advantage]&lt;/b&gt;&lt;/div&gt;Easy to get started" style="rounded=1;whiteSpace=wrap;html=1;" vertex="1" parent="1">
          <mxGeometry x="1510" y="1340" width="120" height="60" as="geometry" />
        </mxCell>
        <mxCell id="Gp7sAnvTN2membX1ZgTw-88" value="&lt;div&gt;&lt;b&gt;[Advantage]&lt;/b&gt;&lt;/div&gt;Flexible pricing" style="rounded=1;whiteSpace=wrap;html=1;" vertex="1" parent="1">
          <mxGeometry x="1510" y="1410" width="120" height="60" as="geometry" />
        </mxCell>
        <mxCell id="Gp7sAnvTN2membX1ZgTw-89" value="&lt;div&gt;&lt;b&gt;[Advantage]&lt;/b&gt;&lt;/div&gt;Fast performance" style="rounded=1;whiteSpace=wrap;html=1;" vertex="1" parent="1">
          <mxGeometry x="1510" y="1480" width="120" height="60" as="geometry" />
        </mxCell>
        <mxCell id="Gp7sAnvTN2membX1ZgTw-90" value="&lt;div&gt;&lt;b&gt;[Advantage]&lt;/b&gt;&lt;/div&gt;Highly available &amp;amp; durable" style="rounded=1;whiteSpace=wrap;html=1;" vertex="1" parent="1">
          <mxGeometry x="1510" y="1550" width="120" height="60" as="geometry" />
        </mxCell>
        <mxCell id="Gp7sAnvTN2membX1ZgTw-91" value="&lt;div&gt;&lt;b&gt;[Advantage]&lt;/b&gt;&lt;/div&gt;Secure" style="rounded=1;whiteSpace=wrap;html=1;" vertex="1" parent="1">
          <mxGeometry x="1510" y="1620" width="120" height="60" as="geometry" />
        </mxCell>
        <mxCell id="Gp7sAnvTN2membX1ZgTw-92" value="&lt;div&gt;&lt;b&gt;[Disadvantage]&lt;/b&gt;&lt;/div&gt;Cost Management" style="rounded=1;whiteSpace=wrap;html=1;" vertex="1" parent="1">
          <mxGeometry x="1659" y="1340" width="120" height="60" as="geometry" />
        </mxCell>
        <mxCell id="Gp7sAnvTN2membX1ZgTw-93" value="&lt;div&gt;&lt;b&gt;[Disadvantage]&lt;/b&gt;&lt;/div&gt;Limited Advanced Features" style="rounded=1;whiteSpace=wrap;html=1;" vertex="1" parent="1">
          <mxGeometry x="1659" y="1410" width="120" height="60" as="geometry" />
        </mxCell>
        <mxCell id="Gp7sAnvTN2membX1ZgTw-94" value="&lt;div&gt;&lt;b&gt;[Disadvantage]&lt;/b&gt;&lt;/div&gt;Timeouts" style="rounded=1;whiteSpace=wrap;html=1;" vertex="1" parent="1">
          <mxGeometry x="1659" y="1480" width="120" height="60" as="geometry" />
        </mxCell>
        <mxCell id="Gp7sAnvTN2membX1ZgTw-95" value="&lt;div&gt;&lt;b&gt;[Disadvantage]&lt;/b&gt;&lt;/div&gt;Hidden Files" style="rounded=1;whiteSpace=wrap;html=1;" vertex="1" parent="1">
          <mxGeometry x="1659" y="1550" width="120" height="60" as="geometry" />
        </mxCell>
        <mxCell id="Gp7sAnvTN2membX1ZgTw-96" value="&lt;div&gt;&lt;b&gt;[Disadvantage]&lt;/b&gt;&lt;/div&gt;Row Size Limitation" style="rounded=1;whiteSpace=wrap;html=1;" vertex="1" parent="1">
          <mxGeometry x="1659" y="1620" width="120" height="60" as="geometry" />
        </mxCell>
        <mxCell id="Gp7sAnvTN2membX1ZgTw-97" style="edgeStyle=orthogonalEdgeStyle;rounded=0;orthogonalLoop=1;jettySize=auto;html=1;" edge="1" parent="1" source="Gp7sAnvTN2membX1ZgTw-102" target="Gp7sAnvTN2membX1ZgTw-103">
          <mxGeometry relative="1" as="geometry" />
        </mxCell>
        <mxCell id="Gp7sAnvTN2membX1ZgTw-98" style="edgeStyle=orthogonalEdgeStyle;rounded=0;orthogonalLoop=1;jettySize=auto;html=1;entryX=0;entryY=0.5;entryDx=0;entryDy=0;" edge="1" parent="1" source="Gp7sAnvTN2membX1ZgTw-102" target="Gp7sAnvTN2membX1ZgTw-104">
          <mxGeometry relative="1" as="geometry" />
        </mxCell>
        <mxCell id="Gp7sAnvTN2membX1ZgTw-99" style="edgeStyle=orthogonalEdgeStyle;rounded=0;orthogonalLoop=1;jettySize=auto;html=1;entryX=0;entryY=0.5;entryDx=0;entryDy=0;" edge="1" parent="1" source="Gp7sAnvTN2membX1ZgTw-102" target="Gp7sAnvTN2membX1ZgTw-105">
          <mxGeometry relative="1" as="geometry" />
        </mxCell>
        <mxCell id="Gp7sAnvTN2membX1ZgTw-100" style="edgeStyle=orthogonalEdgeStyle;rounded=0;orthogonalLoop=1;jettySize=auto;html=1;entryX=0;entryY=0.5;entryDx=0;entryDy=0;" edge="1" parent="1" source="Gp7sAnvTN2membX1ZgTw-102" target="Gp7sAnvTN2membX1ZgTw-106">
          <mxGeometry relative="1" as="geometry" />
        </mxCell>
        <mxCell id="Gp7sAnvTN2membX1ZgTw-101" style="edgeStyle=orthogonalEdgeStyle;rounded=0;orthogonalLoop=1;jettySize=auto;html=1;entryX=0;entryY=0.5;entryDx=0;entryDy=0;" edge="1" parent="1" source="Gp7sAnvTN2membX1ZgTw-102" target="Gp7sAnvTN2membX1ZgTw-107">
          <mxGeometry relative="1" as="geometry" />
        </mxCell>
        <mxCell id="Gp7sAnvTN2membX1ZgTw-102" value="&lt;div&gt;&lt;b&gt;[Product]&lt;/b&gt;&lt;/div&gt;Amazon Kinesis" style="rounded=1;whiteSpace=wrap;html=1;" vertex="1" parent="1">
          <mxGeometry x="1170" y="1754" width="120" height="60" as="geometry" />
        </mxCell>
        <mxCell id="Gp7sAnvTN2membX1ZgTw-103" value="&lt;div&gt;&lt;b&gt;[Feature]&lt;/b&gt;&lt;/div&gt;Kinesis Data Streams" style="rounded=1;whiteSpace=wrap;html=1;" vertex="1" parent="1">
          <mxGeometry x="1360" y="1754" width="120" height="60" as="geometry" />
        </mxCell>
        <mxCell id="Gp7sAnvTN2membX1ZgTw-104" value="&lt;div&gt;&lt;b&gt;[Feature]&lt;/b&gt;&lt;/div&gt;Kinesis Data Firehose" style="rounded=1;whiteSpace=wrap;html=1;" vertex="1" parent="1">
          <mxGeometry x="1360" y="1824" width="120" height="60" as="geometry" />
        </mxCell>
        <mxCell id="Gp7sAnvTN2membX1ZgTw-105" value="&lt;div&gt;&lt;b&gt;[Feature]&lt;/b&gt;&lt;/div&gt;Kinesis Data Analytics" style="rounded=1;whiteSpace=wrap;html=1;" vertex="1" parent="1">
          <mxGeometry x="1360" y="1894" width="120" height="60" as="geometry" />
        </mxCell>
        <mxCell id="Gp7sAnvTN2membX1ZgTw-106" value="&lt;div&gt;&lt;b&gt;[Feature]&lt;/b&gt;&lt;/div&gt;Kinesis Video Streams" style="rounded=1;whiteSpace=wrap;html=1;" vertex="1" parent="1">
          <mxGeometry x="1360" y="1964" width="120" height="60" as="geometry" />
        </mxCell>
        <mxCell id="Gp7sAnvTN2membX1ZgTw-107" value="&lt;div&gt;&lt;b&gt;[Feature]&lt;/b&gt;&lt;/div&gt;Kinesis Agent" style="rounded=1;whiteSpace=wrap;html=1;" vertex="1" parent="1">
          <mxGeometry x="1360" y="2034" width="120" height="60" as="geometry" />
        </mxCell>
        <mxCell id="Gp7sAnvTN2membX1ZgTw-108" value="&lt;div&gt;&lt;b&gt;[Advantage]&lt;/b&gt;&lt;/div&gt;Scalability" style="rounded=1;whiteSpace=wrap;html=1;" vertex="1" parent="1">
          <mxGeometry x="1510" y="1754" width="120" height="60" as="geometry" />
        </mxCell>
        <mxCell id="Gp7sAnvTN2membX1ZgTw-109" value="&lt;div&gt;&lt;b&gt;[Advantage]&lt;/b&gt;&lt;/div&gt;Low Latency" style="rounded=1;whiteSpace=wrap;html=1;" vertex="1" parent="1">
          <mxGeometry x="1510" y="1824" width="120" height="60" as="geometry" />
        </mxCell>
        <mxCell id="Gp7sAnvTN2membX1ZgTw-110" value="&lt;div&gt;&lt;b&gt;[Advantage]&lt;/b&gt;&lt;/div&gt;Integration" style="rounded=1;whiteSpace=wrap;html=1;" vertex="1" parent="1">
          <mxGeometry x="1510" y="1894" width="120" height="60" as="geometry" />
        </mxCell>
        <mxCell id="Gp7sAnvTN2membX1ZgTw-111" value="&lt;div&gt;&lt;b&gt;[Advantage]&lt;/b&gt;&lt;/div&gt;Real-time Insights" style="rounded=1;whiteSpace=wrap;html=1;" vertex="1" parent="1">
          <mxGeometry x="1510" y="1964" width="120" height="60" as="geometry" />
        </mxCell>
        <mxCell id="Gp7sAnvTN2membX1ZgTw-112" value="&lt;div&gt;&lt;b&gt;[Advantage]&lt;/b&gt;&lt;/div&gt;Cost-Effective" style="rounded=1;whiteSpace=wrap;html=1;" vertex="1" parent="1">
          <mxGeometry x="1510" y="2034" width="120" height="60" as="geometry" />
        </mxCell>
        <mxCell id="Gp7sAnvTN2membX1ZgTw-113" value="&lt;div&gt;&lt;b&gt;[Disadvantage]&lt;/b&gt;&lt;/div&gt;Complexity for Beginners" style="rounded=1;whiteSpace=wrap;html=1;" vertex="1" parent="1">
          <mxGeometry x="1659" y="1754" width="120" height="60" as="geometry" />
        </mxCell>
        <mxCell id="Gp7sAnvTN2membX1ZgTw-114" value="&lt;div&gt;&lt;b&gt;[Disadvantage]&lt;/b&gt;&lt;/div&gt;Cost Management" style="rounded=1;whiteSpace=wrap;html=1;" vertex="1" parent="1">
          <mxGeometry x="1659" y="1824" width="120" height="60" as="geometry" />
        </mxCell>
        <mxCell id="Gp7sAnvTN2membX1ZgTw-115" value="&lt;div&gt;&lt;b&gt;[Disadvantage]&lt;/b&gt;&lt;/div&gt;Learning Curve" style="rounded=1;whiteSpace=wrap;html=1;" vertex="1" parent="1">
          <mxGeometry x="1659" y="1894" width="120" height="60" as="geometry" />
        </mxCell>
        <mxCell id="Gp7sAnvTN2membX1ZgTw-116" value="&lt;div&gt;&lt;b&gt;[Disadvantage]&lt;/b&gt;&lt;/div&gt;Limited On-Premises Integration" style="rounded=1;whiteSpace=wrap;html=1;" vertex="1" parent="1">
          <mxGeometry x="1659" y="1964" width="120" height="60" as="geometry" />
        </mxCell>
        <mxCell id="Gp7sAnvTN2membX1ZgTw-117" value="&lt;div&gt;&lt;b&gt;[Disadvantage]&lt;/b&gt;&lt;/div&gt;Dependency on AWS" style="rounded=1;whiteSpace=wrap;html=1;" vertex="1" parent="1">
          <mxGeometry x="1659" y="2034" width="120" height="60" as="geometry" />
        </mxCell>
        <mxCell id="Gp7sAnvTN2membX1ZgTw-118" value="&lt;div&gt;&lt;b&gt;[Feature]&lt;/b&gt;&lt;/div&gt;Unified Monitoring" style="rounded=1;whiteSpace=wrap;html=1;" vertex="1" parent="1">
          <mxGeometry x="1360.5" y="523" width="120" height="60" as="geometry" />
        </mxCell>
        <mxCell id="Gp7sAnvTN2membX1ZgTw-119" value="&lt;div&gt;&lt;b&gt;[Feature]&lt;/b&gt;&lt;/div&gt;Alarms" style="rounded=1;whiteSpace=wrap;html=1;" vertex="1" parent="1">
          <mxGeometry x="1360.5" y="593" width="120" height="60" as="geometry" />
        </mxCell>
        <mxCell id="Gp7sAnvTN2membX1ZgTw-120" value="&lt;div&gt;&lt;b&gt;[Feature]&lt;/b&gt;&lt;/div&gt;Logs and Metrics" style="rounded=1;whiteSpace=wrap;html=1;" vertex="1" parent="1">
          <mxGeometry x="1360.5" y="663" width="120" height="60" as="geometry" />
        </mxCell>
        <mxCell id="Gp7sAnvTN2membX1ZgTw-121" value="&lt;div&gt;&lt;b&gt;[Feature]&lt;/b&gt;&lt;/div&gt;Automated Actions" style="rounded=1;whiteSpace=wrap;html=1;" vertex="1" parent="1">
          <mxGeometry x="1360.5" y="733" width="120" height="60" as="geometry" />
        </mxCell>
        <mxCell id="Gp7sAnvTN2membX1ZgTw-122" value="&lt;div&gt;&lt;b&gt;[Feature]&lt;/b&gt;&lt;/div&gt;Container Insights" style="rounded=1;whiteSpace=wrap;html=1;" vertex="1" parent="1">
          <mxGeometry x="1360.5" y="803" width="120" height="60" as="geometry" />
        </mxCell>
        <mxCell id="Gp7sAnvTN2membX1ZgTw-123" value="&lt;div&gt;&lt;b&gt;[Advantage]&lt;/b&gt;&lt;/div&gt;Real-time Monitoring" style="rounded=1;whiteSpace=wrap;html=1;" vertex="1" parent="1">
          <mxGeometry x="1510.5" y="523" width="120" height="60" as="geometry" />
        </mxCell>
        <mxCell id="Gp7sAnvTN2membX1ZgTw-124" value="&lt;div&gt;&lt;b&gt;[Advantage]&lt;/b&gt;&lt;/div&gt;Cost Optimization" style="rounded=1;whiteSpace=wrap;html=1;" vertex="1" parent="1">
          <mxGeometry x="1510.5" y="593" width="120" height="60" as="geometry" />
        </mxCell>
        <mxCell id="Gp7sAnvTN2membX1ZgTw-125" value="&lt;div&gt;&lt;b&gt;[Advantage]&lt;/b&gt;&lt;/div&gt;Scalability" style="rounded=1;whiteSpace=wrap;html=1;" vertex="1" parent="1">
          <mxGeometry x="1510.5" y="663" width="120" height="60" as="geometry" />
        </mxCell>
        <mxCell id="Gp7sAnvTN2membX1ZgTw-126" value="&lt;div&gt;&lt;b&gt;[Advantage]&lt;/b&gt;&lt;/div&gt;Automation" style="rounded=1;whiteSpace=wrap;html=1;" vertex="1" parent="1">
          <mxGeometry x="1510.5" y="733" width="120" height="60" as="geometry" />
        </mxCell>
        <mxCell id="Gp7sAnvTN2membX1ZgTw-127" value="&lt;div&gt;&lt;b&gt;[Advantage]&lt;/b&gt;&lt;/div&gt;Historical Data" style="rounded=1;whiteSpace=wrap;html=1;" vertex="1" parent="1">
          <mxGeometry x="1510.5" y="803" width="120" height="60" as="geometry" />
        </mxCell>
        <mxCell id="Gp7sAnvTN2membX1ZgTw-128" value="&lt;div&gt;&lt;b&gt;[Disadvantage]&lt;/b&gt;&lt;/div&gt;Complexity" style="rounded=1;whiteSpace=wrap;html=1;" vertex="1" parent="1">
          <mxGeometry x="1659.5" y="523" width="120" height="60" as="geometry" />
        </mxCell>
        <mxCell id="Gp7sAnvTN2membX1ZgTw-129" value="&lt;div&gt;&lt;b&gt;[Disadvantage]&lt;/b&gt;&lt;/div&gt;Cost" style="rounded=1;whiteSpace=wrap;html=1;" vertex="1" parent="1">
          <mxGeometry x="1659.5" y="593" width="120" height="60" as="geometry" />
        </mxCell>
        <mxCell id="Gp7sAnvTN2membX1ZgTw-130" value="&lt;div&gt;&lt;b&gt;[Disadvantage]&lt;/b&gt;&lt;/div&gt;Limited Drill-down" style="rounded=1;whiteSpace=wrap;html=1;" vertex="1" parent="1">
          <mxGeometry x="1659.5" y="663" width="120" height="60" as="geometry" />
        </mxCell>
        <mxCell id="Gp7sAnvTN2membX1ZgTw-131" value="&lt;div&gt;&lt;b&gt;[Disadvantage]&lt;/b&gt;&lt;/div&gt;Log Streaming (slow and requires more serives)" style="rounded=1;whiteSpace=wrap;html=1;" vertex="1" parent="1">
          <mxGeometry x="1659.5" y="733" width="120" height="60" as="geometry" />
        </mxCell>
        <mxCell id="Gp7sAnvTN2membX1ZgTw-132" value="&lt;div&gt;&lt;b&gt;[Disadvantage]&lt;/b&gt;&lt;/div&gt;Limited Search Functionality" style="rounded=1;whiteSpace=wrap;html=1;" vertex="1" parent="1">
          <mxGeometry x="1659.5" y="803" width="120" height="60" as="geometry" />
        </mxCell>
        <mxCell id="Gp7sAnvTN2membX1ZgTw-135" value="&lt;div&gt;&lt;b&gt;[Feature]&lt;/b&gt;&lt;/div&gt;Predictive Game Server Scaling" style="rounded=1;whiteSpace=wrap;html=1;" vertex="1" parent="1">
          <mxGeometry x="1360" y="110" width="120" height="60" as="geometry" />
        </mxCell>
        <mxCell id="Gp7sAnvTN2membX1ZgTw-136" value="&lt;div&gt;&lt;b&gt;[Feature]&lt;/b&gt;&lt;/div&gt;Matchmaking for Large Crowds" style="rounded=1;whiteSpace=wrap;html=1;" vertex="1" parent="1">
          <mxGeometry x="1360" y="180" width="120" height="60" as="geometry" />
        </mxCell>
        <mxCell id="Gp7sAnvTN2membX1ZgTw-137" value="&lt;div&gt;&lt;b&gt;[Feature]&lt;/b&gt;&lt;/div&gt;Build with flexible containers" style="rounded=1;whiteSpace=wrap;html=1;" vertex="1" parent="1">
          <mxGeometry x="1360" y="250" width="120" height="60" as="geometry" />
        </mxCell>
        <mxCell id="Gp7sAnvTN2membX1ZgTw-138" value="&lt;div&gt;&lt;b&gt;[Feature]&lt;/b&gt;&lt;/div&gt;Local iterative development" style="rounded=1;whiteSpace=wrap;html=1;" vertex="1" parent="1">
          <mxGeometry x="1360" y="320" width="120" height="60" as="geometry" />
        </mxCell>
        <mxCell id="Gp7sAnvTN2membX1ZgTw-139" value="&lt;div&gt;&lt;b&gt;[Feature]&lt;/b&gt;&lt;/div&gt;Patch with zero downtime " style="rounded=1;whiteSpace=wrap;html=1;" vertex="1" parent="1">
          <mxGeometry x="1360" y="390" width="120" height="60" as="geometry" />
        </mxCell>
        <mxCell id="Gp7sAnvTN2membX1ZgTw-140" value="&lt;div&gt;&lt;b&gt;[Advantage]&lt;/b&gt;&lt;/div&gt;Dynamically scaling" style="rounded=1;whiteSpace=wrap;html=1;" vertex="1" parent="1">
          <mxGeometry x="1510" y="110" width="120" height="60" as="geometry" />
        </mxCell>
        <mxCell id="Gp7sAnvTN2membX1ZgTw-141" value="&lt;div&gt;&lt;b&gt;[Advantage]&lt;/b&gt;&lt;/div&gt;High-performance" style="rounded=1;whiteSpace=wrap;html=1;" vertex="1" parent="1">
          <mxGeometry x="1510" y="180" width="120" height="60" as="geometry" />
        </mxCell>
        <mxCell id="Gp7sAnvTN2membX1ZgTw-142" value="&lt;div&gt;&lt;b&gt;[Advantage]&lt;/b&gt;&lt;/div&gt;High-reliability" style="rounded=1;whiteSpace=wrap;html=1;" vertex="1" parent="1">
          <mxGeometry x="1510" y="250" width="120" height="60" as="geometry" />
        </mxCell>
        <mxCell id="Gp7sAnvTN2membX1ZgTw-143" value="&lt;div&gt;&lt;b&gt;[Advantage]&lt;/b&gt;&lt;/div&gt;Enterprise-Grade Security" style="rounded=1;whiteSpace=wrap;html=1;" vertex="1" parent="1">
          <mxGeometry x="1510" y="320" width="120" height="60" as="geometry" />
        </mxCell>
        <mxCell id="Gp7sAnvTN2membX1ZgTw-144" value="&lt;div&gt;&lt;b&gt;[Advantage]&lt;/b&gt;&lt;/div&gt;Integration with Existing Tools (engines)" style="rounded=1;whiteSpace=wrap;html=1;" vertex="1" parent="1">
          <mxGeometry x="1510" y="390" width="120" height="60" as="geometry" />
        </mxCell>
        <mxCell id="Gp7sAnvTN2membX1ZgTw-145" value="&lt;div&gt;&lt;b&gt;[Disadvantage]&lt;/b&gt;&lt;/div&gt;Cost" style="rounded=1;whiteSpace=wrap;html=1;" vertex="1" parent="1">
          <mxGeometry x="1659" y="110" width="120" height="60" as="geometry" />
        </mxCell>
        <mxCell id="Gp7sAnvTN2membX1ZgTw-146" value="&lt;div&gt;&lt;b&gt;[Disadvantage]&lt;/b&gt;&lt;/div&gt;Limited Platform Support" style="rounded=1;whiteSpace=wrap;html=1;" vertex="1" parent="1">
          <mxGeometry x="1659" y="180" width="120" height="60" as="geometry" />
        </mxCell>
        <mxCell id="Gp7sAnvTN2membX1ZgTw-147" value="&lt;div&gt;&lt;b&gt;[Disadvantage]&lt;/b&gt;&lt;/div&gt;Dependency on AWS" style="rounded=1;whiteSpace=wrap;html=1;" vertex="1" parent="1">
          <mxGeometry x="1659" y="250" width="120" height="60" as="geometry" />
        </mxCell>
        <mxCell id="Gp7sAnvTN2membX1ZgTw-148" value="&lt;div&gt;&lt;b&gt;[Disadvantage]&lt;/b&gt;&lt;/div&gt;&lt;div&gt;Limited Customization&lt;b&gt;&lt;br&gt;&lt;/b&gt;&lt;/div&gt;" style="rounded=1;whiteSpace=wrap;html=1;" vertex="1" parent="1">
          <mxGeometry x="1659" y="320" width="120" height="60" as="geometry" />
        </mxCell>
        <mxCell id="Gp7sAnvTN2membX1ZgTw-149" value="&lt;div&gt;&lt;b&gt;[Disadvantage]&lt;/b&gt;&lt;/div&gt;Geographical Limitations" style="rounded=1;whiteSpace=wrap;html=1;" vertex="1" parent="1">
          <mxGeometry x="1659" y="390" width="120" height="60" as="geometry" />
        </mxCell>
        <mxCell id="Gp7sAnvTN2membX1ZgTw-160" value="" style="rounded=0;whiteSpace=wrap;html=1;fillColor=#99CCFF;" vertex="1" parent="1">
          <mxGeometry x="2484" y="50" width="150" height="2070" as="geometry" />
        </mxCell>
        <mxCell id="Gp7sAnvTN2membX1ZgTw-161" value="" style="rounded=0;whiteSpace=wrap;html=1;fillColor=#99FF99;" vertex="1" parent="1">
          <mxGeometry x="2334" y="50" width="150" height="2070" as="geometry" />
        </mxCell>
        <mxCell id="Gp7sAnvTN2membX1ZgTw-162" style="edgeStyle=orthogonalEdgeStyle;rounded=0;orthogonalLoop=1;jettySize=auto;html=1;entryX=0;entryY=0.5;entryDx=0;entryDy=0;" edge="1" parent="1" source="Gp7sAnvTN2membX1ZgTw-167" target="Gp7sAnvTN2membX1ZgTw-173">
          <mxGeometry relative="1" as="geometry" />
        </mxCell>
        <mxCell id="Gp7sAnvTN2membX1ZgTw-163" style="edgeStyle=orthogonalEdgeStyle;rounded=0;orthogonalLoop=1;jettySize=auto;html=1;entryX=0;entryY=0.5;entryDx=0;entryDy=0;" edge="1" parent="1" source="Gp7sAnvTN2membX1ZgTw-167" target="Gp7sAnvTN2membX1ZgTw-179">
          <mxGeometry relative="1" as="geometry" />
        </mxCell>
        <mxCell id="Gp7sAnvTN2membX1ZgTw-164" style="edgeStyle=orthogonalEdgeStyle;rounded=0;orthogonalLoop=1;jettySize=auto;html=1;entryX=0;entryY=0.5;entryDx=0;entryDy=0;" edge="1" parent="1" source="Gp7sAnvTN2membX1ZgTw-167" target="Gp7sAnvTN2membX1ZgTw-189">
          <mxGeometry relative="1" as="geometry" />
        </mxCell>
        <mxCell id="Gp7sAnvTN2membX1ZgTw-165" style="edgeStyle=orthogonalEdgeStyle;rounded=0;orthogonalLoop=1;jettySize=auto;html=1;entryX=0;entryY=0.5;entryDx=0;entryDy=0;" edge="1" parent="1" source="Gp7sAnvTN2membX1ZgTw-167" target="Gp7sAnvTN2membX1ZgTw-210">
          <mxGeometry relative="1" as="geometry" />
        </mxCell>
        <mxCell id="Gp7sAnvTN2membX1ZgTw-166" style="edgeStyle=orthogonalEdgeStyle;rounded=0;orthogonalLoop=1;jettySize=auto;html=1;entryX=0;entryY=0.5;entryDx=0;entryDy=0;" edge="1" parent="1" source="Gp7sAnvTN2membX1ZgTw-167" target="Gp7sAnvTN2membX1ZgTw-231">
          <mxGeometry relative="1" as="geometry" />
        </mxCell>
        <mxCell id="Gp7sAnvTN2membX1ZgTw-167" value="Healthcare &amp;amp; Life Sciences" style="rounded=1;whiteSpace=wrap;html=1;" vertex="1" parent="1">
          <mxGeometry x="1970" y="110" width="120" height="60" as="geometry" />
        </mxCell>
        <mxCell id="Gp7sAnvTN2membX1ZgTw-168" style="edgeStyle=orthogonalEdgeStyle;rounded=0;orthogonalLoop=1;jettySize=auto;html=1;" edge="1" parent="1" source="Gp7sAnvTN2membX1ZgTw-173" target="Gp7sAnvTN2membX1ZgTw-262">
          <mxGeometry relative="1" as="geometry" />
        </mxCell>
        <mxCell id="Gp7sAnvTN2membX1ZgTw-169" style="edgeStyle=orthogonalEdgeStyle;rounded=0;orthogonalLoop=1;jettySize=auto;html=1;entryX=0;entryY=0.5;entryDx=0;entryDy=0;" edge="1" parent="1" source="Gp7sAnvTN2membX1ZgTw-173" target="Gp7sAnvTN2membX1ZgTw-263">
          <mxGeometry relative="1" as="geometry" />
        </mxCell>
        <mxCell id="Gp7sAnvTN2membX1ZgTw-170" style="edgeStyle=orthogonalEdgeStyle;rounded=0;orthogonalLoop=1;jettySize=auto;html=1;entryX=0;entryY=0.5;entryDx=0;entryDy=0;" edge="1" parent="1" source="Gp7sAnvTN2membX1ZgTw-173" target="Gp7sAnvTN2membX1ZgTw-264">
          <mxGeometry relative="1" as="geometry" />
        </mxCell>
        <mxCell id="Gp7sAnvTN2membX1ZgTw-171" style="edgeStyle=orthogonalEdgeStyle;rounded=0;orthogonalLoop=1;jettySize=auto;html=1;entryX=0;entryY=0.5;entryDx=0;entryDy=0;" edge="1" parent="1" source="Gp7sAnvTN2membX1ZgTw-173" target="Gp7sAnvTN2membX1ZgTw-265">
          <mxGeometry relative="1" as="geometry" />
        </mxCell>
        <mxCell id="Gp7sAnvTN2membX1ZgTw-172" style="edgeStyle=orthogonalEdgeStyle;rounded=0;orthogonalLoop=1;jettySize=auto;html=1;entryX=0;entryY=0.5;entryDx=0;entryDy=0;" edge="1" parent="1" source="Gp7sAnvTN2membX1ZgTw-173" target="Gp7sAnvTN2membX1ZgTw-266">
          <mxGeometry relative="1" as="geometry" />
        </mxCell>
        <mxCell id="Gp7sAnvTN2membX1ZgTw-173" value="&lt;div&gt;&lt;b&gt;[Product]&lt;/b&gt;&lt;/div&gt;AWS HealthScribe" style="rounded=1;whiteSpace=wrap;html=1;" vertex="1" parent="1">
          <mxGeometry x="2160" y="110" width="120" height="60" as="geometry" />
        </mxCell>
        <mxCell id="Gp7sAnvTN2membX1ZgTw-174" style="edgeStyle=orthogonalEdgeStyle;rounded=0;orthogonalLoop=1;jettySize=auto;html=1;entryX=0;entryY=0.5;entryDx=0;entryDy=0;" edge="1" parent="1" source="Gp7sAnvTN2membX1ZgTw-179" target="Gp7sAnvTN2membX1ZgTw-247">
          <mxGeometry relative="1" as="geometry" />
        </mxCell>
        <mxCell id="Gp7sAnvTN2membX1ZgTw-175" style="edgeStyle=orthogonalEdgeStyle;rounded=0;orthogonalLoop=1;jettySize=auto;html=1;entryX=0;entryY=0.5;entryDx=0;entryDy=0;" edge="1" parent="1" source="Gp7sAnvTN2membX1ZgTw-179" target="Gp7sAnvTN2membX1ZgTw-248">
          <mxGeometry relative="1" as="geometry" />
        </mxCell>
        <mxCell id="Gp7sAnvTN2membX1ZgTw-176" style="edgeStyle=orthogonalEdgeStyle;rounded=0;orthogonalLoop=1;jettySize=auto;html=1;entryX=0;entryY=0.5;entryDx=0;entryDy=0;" edge="1" parent="1" source="Gp7sAnvTN2membX1ZgTw-179" target="Gp7sAnvTN2membX1ZgTw-249">
          <mxGeometry relative="1" as="geometry" />
        </mxCell>
        <mxCell id="Gp7sAnvTN2membX1ZgTw-177" style="edgeStyle=orthogonalEdgeStyle;rounded=0;orthogonalLoop=1;jettySize=auto;html=1;entryX=0;entryY=0.5;entryDx=0;entryDy=0;" edge="1" parent="1" source="Gp7sAnvTN2membX1ZgTw-179" target="Gp7sAnvTN2membX1ZgTw-250">
          <mxGeometry relative="1" as="geometry" />
        </mxCell>
        <mxCell id="Gp7sAnvTN2membX1ZgTw-178" style="edgeStyle=orthogonalEdgeStyle;rounded=0;orthogonalLoop=1;jettySize=auto;html=1;entryX=0;entryY=0.5;entryDx=0;entryDy=0;" edge="1" parent="1" source="Gp7sAnvTN2membX1ZgTw-179" target="Gp7sAnvTN2membX1ZgTw-251">
          <mxGeometry relative="1" as="geometry" />
        </mxCell>
        <mxCell id="Gp7sAnvTN2membX1ZgTw-179" value="&lt;div&gt;&lt;b&gt;[Product]&lt;/b&gt;&lt;/div&gt;AWS HealthLake" style="rounded=1;whiteSpace=wrap;html=1;" vertex="1" parent="1">
          <mxGeometry x="2160" y="523" width="120" height="60" as="geometry" />
        </mxCell>
        <mxCell id="Gp7sAnvTN2membX1ZgTw-180" value="Features" style="text;html=1;align=center;verticalAlign=middle;whiteSpace=wrap;rounded=0;" vertex="1" parent="1">
          <mxGeometry x="2379" y="60" width="60" height="30" as="geometry" />
        </mxCell>
        <mxCell id="Gp7sAnvTN2membX1ZgTw-181" value="Advantages" style="text;html=1;align=center;verticalAlign=middle;whiteSpace=wrap;rounded=0;" vertex="1" parent="1">
          <mxGeometry x="2530" y="60" width="60" height="30" as="geometry" />
        </mxCell>
        <mxCell id="Gp7sAnvTN2membX1ZgTw-182" value="" style="rounded=0;whiteSpace=wrap;html=1;fillColor=#FF9999;" vertex="1" parent="1">
          <mxGeometry x="2634" y="50" width="150" height="2070" as="geometry" />
        </mxCell>
        <mxCell id="Gp7sAnvTN2membX1ZgTw-183" value="Disadvantages" style="text;html=1;align=center;verticalAlign=middle;whiteSpace=wrap;rounded=0;" vertex="1" parent="1">
          <mxGeometry x="2679" y="60" width="60" height="30" as="geometry" />
        </mxCell>
        <mxCell id="Gp7sAnvTN2membX1ZgTw-184" style="edgeStyle=orthogonalEdgeStyle;rounded=0;orthogonalLoop=1;jettySize=auto;html=1;" edge="1" parent="1" source="Gp7sAnvTN2membX1ZgTw-189" target="Gp7sAnvTN2membX1ZgTw-190">
          <mxGeometry relative="1" as="geometry" />
        </mxCell>
        <mxCell id="Gp7sAnvTN2membX1ZgTw-185" style="edgeStyle=orthogonalEdgeStyle;rounded=0;orthogonalLoop=1;jettySize=auto;html=1;entryX=0;entryY=0.5;entryDx=0;entryDy=0;" edge="1" parent="1" source="Gp7sAnvTN2membX1ZgTw-189" target="Gp7sAnvTN2membX1ZgTw-191">
          <mxGeometry relative="1" as="geometry" />
        </mxCell>
        <mxCell id="Gp7sAnvTN2membX1ZgTw-186" style="edgeStyle=orthogonalEdgeStyle;rounded=0;orthogonalLoop=1;jettySize=auto;html=1;entryX=0;entryY=0.5;entryDx=0;entryDy=0;" edge="1" parent="1" source="Gp7sAnvTN2membX1ZgTw-189" target="Gp7sAnvTN2membX1ZgTw-192">
          <mxGeometry relative="1" as="geometry" />
        </mxCell>
        <mxCell id="Gp7sAnvTN2membX1ZgTw-187" style="edgeStyle=orthogonalEdgeStyle;rounded=0;orthogonalLoop=1;jettySize=auto;html=1;entryX=0;entryY=0.5;entryDx=0;entryDy=0;" edge="1" parent="1" source="Gp7sAnvTN2membX1ZgTw-189" target="Gp7sAnvTN2membX1ZgTw-193">
          <mxGeometry relative="1" as="geometry" />
        </mxCell>
        <mxCell id="Gp7sAnvTN2membX1ZgTw-188" style="edgeStyle=orthogonalEdgeStyle;rounded=0;orthogonalLoop=1;jettySize=auto;html=1;entryX=0;entryY=0.5;entryDx=0;entryDy=0;" edge="1" parent="1" source="Gp7sAnvTN2membX1ZgTw-189" target="Gp7sAnvTN2membX1ZgTw-194">
          <mxGeometry relative="1" as="geometry" />
        </mxCell>
        <mxCell id="Gp7sAnvTN2membX1ZgTw-189" value="&lt;div&gt;&lt;b&gt;[Product]&lt;/b&gt;&lt;/div&gt;AWS HealthImaging" style="rounded=1;whiteSpace=wrap;html=1;" vertex="1" parent="1">
          <mxGeometry x="2160" y="930" width="120" height="60" as="geometry" />
        </mxCell>
        <mxCell id="Gp7sAnvTN2membX1ZgTw-190" value="&lt;div&gt;&lt;b&gt;[Feature]&lt;/b&gt;&lt;/div&gt;Developer-friendly metadata" style="rounded=1;whiteSpace=wrap;html=1;" vertex="1" parent="1">
          <mxGeometry x="2350" y="930" width="120" height="60" as="geometry" />
        </mxCell>
        <mxCell id="Gp7sAnvTN2membX1ZgTw-191" value="&lt;div&gt;&lt;b&gt;[Feature]&lt;/b&gt;&lt;/div&gt;SIMD-accelerated image decoding" style="rounded=1;whiteSpace=wrap;html=1;" vertex="1" parent="1">
          <mxGeometry x="2350" y="1000" width="120" height="60" as="geometry" />
        </mxCell>
        <mxCell id="Gp7sAnvTN2membX1ZgTw-192" value="&lt;div&gt;&lt;b&gt;[Feature]&lt;/b&gt;&lt;/div&gt;Scalable ingestion" style="rounded=1;whiteSpace=wrap;html=1;" vertex="1" parent="1">
          <mxGeometry x="2350" y="1070" width="120" height="60" as="geometry" />
        </mxCell>
        <mxCell id="Gp7sAnvTN2membX1ZgTw-193" value="&lt;div&gt;&lt;b&gt;[Feature]&lt;/b&gt;&lt;/div&gt;DICOM P10 Format" style="rounded=1;whiteSpace=wrap;html=1;" vertex="1" parent="1">
          <mxGeometry x="2350" y="1140" width="120" height="60" as="geometry" />
        </mxCell>
        <mxCell id="Gp7sAnvTN2membX1ZgTw-194" value="&lt;div&gt;&lt;b&gt;[Feature]&lt;/b&gt;&lt;/div&gt;Purpose-Built Storage" style="rounded=1;whiteSpace=wrap;html=1;" vertex="1" parent="1">
          <mxGeometry x="2350" y="1210" width="120" height="60" as="geometry" />
        </mxCell>
        <mxCell id="Gp7sAnvTN2membX1ZgTw-195" value="&lt;div&gt;&lt;b&gt;[Advantage]&lt;/b&gt;&lt;/div&gt;Industry-leading performance" style="rounded=1;whiteSpace=wrap;html=1;" vertex="1" parent="1">
          <mxGeometry x="2500" y="930" width="120" height="60" as="geometry" />
        </mxCell>
        <mxCell id="Gp7sAnvTN2membX1ZgTw-196" value="&lt;div&gt;&lt;b&gt;[Advantage]&lt;/b&gt;&lt;/div&gt;Lower Total Cost of Ownership" style="rounded=1;whiteSpace=wrap;html=1;" vertex="1" parent="1">
          <mxGeometry x="2500" y="1000" width="120" height="60" as="geometry" />
        </mxCell>
        <mxCell id="Gp7sAnvTN2membX1ZgTw-197" value="&lt;div&gt;&lt;b&gt;[Advantage]&lt;/b&gt;&lt;/div&gt;Fast Image Access" style="rounded=1;whiteSpace=wrap;html=1;" vertex="1" parent="1">
          <mxGeometry x="2500" y="1070" width="120" height="60" as="geometry" />
        </mxCell>
        <mxCell id="Gp7sAnvTN2membX1ZgTw-198" value="&lt;div&gt;&lt;b&gt;[Advantage]&lt;/b&gt;&lt;/div&gt;Robust Partner Network" style="rounded=1;whiteSpace=wrap;html=1;" vertex="1" parent="1">
          <mxGeometry x="2500" y="1140" width="120" height="60" as="geometry" />
        </mxCell>
        <mxCell id="Gp7sAnvTN2membX1ZgTw-199" value="&lt;div&gt;&lt;b&gt;[Advantage]&lt;/b&gt;&lt;/div&gt;Multimodal Analysis" style="rounded=1;whiteSpace=wrap;html=1;" vertex="1" parent="1">
          <mxGeometry x="2500" y="1210" width="120" height="60" as="geometry" />
        </mxCell>
        <mxCell id="Gp7sAnvTN2membX1ZgTw-200" value="&lt;div&gt;&lt;b&gt;[Disadvantage]&lt;/b&gt;&lt;/div&gt;Data Quality" style="rounded=1;whiteSpace=wrap;html=1;" vertex="1" parent="1">
          <mxGeometry x="2649" y="930" width="120" height="60" as="geometry" />
        </mxCell>
        <mxCell id="Gp7sAnvTN2membX1ZgTw-201" value="&lt;div&gt;&lt;b&gt;[Disadvantage]&lt;/b&gt;&lt;/div&gt;Limited On-Premises Integration" style="rounded=1;whiteSpace=wrap;html=1;" vertex="1" parent="1">
          <mxGeometry x="2649" y="1000" width="120" height="60" as="geometry" />
        </mxCell>
        <mxCell id="Gp7sAnvTN2membX1ZgTw-202" value="&lt;div&gt;&lt;b&gt;[Disadvantage]&lt;/b&gt;&lt;/div&gt;No Off-line Capabilities " style="rounded=1;whiteSpace=wrap;html=1;" vertex="1" parent="1">
          <mxGeometry x="2649" y="1070" width="120" height="60" as="geometry" />
        </mxCell>
        <mxCell id="Gp7sAnvTN2membX1ZgTw-203" value="&lt;div&gt;&lt;b&gt;[Disadvantage]&lt;/b&gt;&lt;/div&gt;Complex Setup" style="rounded=1;whiteSpace=wrap;html=1;" vertex="1" parent="1">
          <mxGeometry x="2649" y="1140" width="120" height="60" as="geometry" />
        </mxCell>
        <mxCell id="Gp7sAnvTN2membX1ZgTw-204" value="&lt;div&gt;&lt;b&gt;[Disadvantage]&lt;/b&gt;&lt;/div&gt;Dependency on AWS" style="rounded=1;whiteSpace=wrap;html=1;" vertex="1" parent="1">
          <mxGeometry x="2649" y="1210" width="120" height="60" as="geometry" />
        </mxCell>
        <mxCell id="Gp7sAnvTN2membX1ZgTw-205" style="edgeStyle=orthogonalEdgeStyle;rounded=0;orthogonalLoop=1;jettySize=auto;html=1;" edge="1" parent="1" source="Gp7sAnvTN2membX1ZgTw-210" target="Gp7sAnvTN2membX1ZgTw-211">
          <mxGeometry relative="1" as="geometry" />
        </mxCell>
        <mxCell id="Gp7sAnvTN2membX1ZgTw-206" style="edgeStyle=orthogonalEdgeStyle;rounded=0;orthogonalLoop=1;jettySize=auto;html=1;entryX=0;entryY=0.5;entryDx=0;entryDy=0;" edge="1" parent="1" source="Gp7sAnvTN2membX1ZgTw-210" target="Gp7sAnvTN2membX1ZgTw-212">
          <mxGeometry relative="1" as="geometry" />
        </mxCell>
        <mxCell id="Gp7sAnvTN2membX1ZgTw-207" style="edgeStyle=orthogonalEdgeStyle;rounded=0;orthogonalLoop=1;jettySize=auto;html=1;entryX=0;entryY=0.5;entryDx=0;entryDy=0;" edge="1" parent="1" source="Gp7sAnvTN2membX1ZgTw-210" target="Gp7sAnvTN2membX1ZgTw-213">
          <mxGeometry relative="1" as="geometry" />
        </mxCell>
        <mxCell id="Gp7sAnvTN2membX1ZgTw-208" style="edgeStyle=orthogonalEdgeStyle;rounded=0;orthogonalLoop=1;jettySize=auto;html=1;entryX=0;entryY=0.5;entryDx=0;entryDy=0;" edge="1" parent="1" source="Gp7sAnvTN2membX1ZgTw-210" target="Gp7sAnvTN2membX1ZgTw-214">
          <mxGeometry relative="1" as="geometry" />
        </mxCell>
        <mxCell id="Gp7sAnvTN2membX1ZgTw-209" style="edgeStyle=orthogonalEdgeStyle;rounded=0;orthogonalLoop=1;jettySize=auto;html=1;entryX=0;entryY=0.5;entryDx=0;entryDy=0;" edge="1" parent="1" source="Gp7sAnvTN2membX1ZgTw-210" target="Gp7sAnvTN2membX1ZgTw-215">
          <mxGeometry relative="1" as="geometry" />
        </mxCell>
        <mxCell id="Gp7sAnvTN2membX1ZgTw-210" value="&lt;div&gt;&lt;b&gt;[Product]&lt;/b&gt;&lt;/div&gt;AWS HealthOmics" style="rounded=1;whiteSpace=wrap;html=1;" vertex="1" parent="1">
          <mxGeometry x="2160" y="1340" width="120" height="60" as="geometry" />
        </mxCell>
        <mxCell id="Gp7sAnvTN2membX1ZgTw-211" value="&lt;div&gt;&lt;b&gt;[Feature]&lt;/b&gt;&lt;/div&gt;Purpose-built Storage" style="rounded=1;whiteSpace=wrap;html=1;" vertex="1" parent="1">
          <mxGeometry x="2350" y="1340" width="120" height="60" as="geometry" />
        </mxCell>
        <mxCell id="Gp7sAnvTN2membX1ZgTw-212" value="&lt;div&gt;&lt;b&gt;[Feature]&lt;/b&gt;&lt;/div&gt;Bioinformatics Workflows" style="rounded=1;whiteSpace=wrap;html=1;" vertex="1" parent="1">
          <mxGeometry x="2350" y="1410" width="120" height="60" as="geometry" />
        </mxCell>
        <mxCell id="Gp7sAnvTN2membX1ZgTw-213" value="&lt;div&gt;&lt;b&gt;[Feature]&lt;/b&gt;&lt;/div&gt;Multiomic and Multimodal Analysis" style="rounded=1;whiteSpace=wrap;html=1;" vertex="1" parent="1">
          <mxGeometry x="2350" y="1480" width="120" height="60" as="geometry" />
        </mxCell>
        <mxCell id="Gp7sAnvTN2membX1ZgTw-214" value="&lt;div&gt;&lt;b&gt;[Feature]&lt;/b&gt;&lt;/div&gt;Population Sequencing" style="rounded=1;whiteSpace=wrap;html=1;" vertex="1" parent="1">
          <mxGeometry x="2350" y="1550" width="120" height="60" as="geometry" />
        </mxCell>
        <mxCell id="Gp7sAnvTN2membX1ZgTw-215" value="&lt;div&gt;&lt;b&gt;[Feature]&lt;/b&gt;&lt;/div&gt;Automated Infrastructure Management" style="rounded=1;whiteSpace=wrap;html=1;" vertex="1" parent="1">
          <mxGeometry x="2350" y="1620" width="120" height="60" as="geometry" />
        </mxCell>
        <mxCell id="Gp7sAnvTN2membX1ZgTw-216" value="&lt;div&gt;&lt;b&gt;[Advantage]&lt;/b&gt;&lt;/div&gt;Built-in Security and Compliance" style="rounded=1;whiteSpace=wrap;html=1;" vertex="1" parent="1">
          <mxGeometry x="2500" y="1340" width="120" height="60" as="geometry" />
        </mxCell>
        <mxCell id="Gp7sAnvTN2membX1ZgTw-217" value="&lt;div&gt;&lt;b&gt;[Advantage]&lt;/b&gt;&lt;/div&gt;Scalability" style="rounded=1;whiteSpace=wrap;html=1;" vertex="1" parent="1">
          <mxGeometry x="2500" y="1410" width="120" height="60" as="geometry" />
        </mxCell>
        <mxCell id="Gp7sAnvTN2membX1ZgTw-218" value="&lt;div&gt;&lt;b&gt;[Advantage]&lt;/b&gt;&lt;/div&gt;Interoperability" style="rounded=1;whiteSpace=wrap;html=1;" vertex="1" parent="1">
          <mxGeometry x="2500" y="1480" width="120" height="60" as="geometry" />
        </mxCell>
        <mxCell id="Gp7sAnvTN2membX1ZgTw-219" value="&lt;div&gt;&lt;b&gt;[Advantage]&lt;/b&gt;&lt;/div&gt;Enhanced Analytics" style="rounded=1;whiteSpace=wrap;html=1;" vertex="1" parent="1">
          <mxGeometry x="2500" y="1550" width="120" height="60" as="geometry" />
        </mxCell>
        <mxCell id="Gp7sAnvTN2membX1ZgTw-220" value="&lt;div&gt;&lt;b&gt;[Advantage]&lt;/b&gt;&lt;/div&gt;Improved Decision Making" style="rounded=1;whiteSpace=wrap;html=1;" vertex="1" parent="1">
          <mxGeometry x="2500" y="1620" width="120" height="60" as="geometry" />
        </mxCell>
        <mxCell id="Gp7sAnvTN2membX1ZgTw-221" value="&lt;div&gt;&lt;b&gt;[Disadvantage]&lt;/b&gt;&lt;/div&gt;Complex Setup" style="rounded=1;whiteSpace=wrap;html=1;" vertex="1" parent="1">
          <mxGeometry x="2649" y="1340" width="120" height="60" as="geometry" />
        </mxCell>
        <mxCell id="Gp7sAnvTN2membX1ZgTw-222" value="&lt;div&gt;&lt;b&gt;[Disadvantage]&lt;/b&gt;&lt;/div&gt;Cost Management" style="rounded=1;whiteSpace=wrap;html=1;" vertex="1" parent="1">
          <mxGeometry x="2649" y="1410" width="120" height="60" as="geometry" />
        </mxCell>
        <mxCell id="Gp7sAnvTN2membX1ZgTw-223" value="&lt;div&gt;&lt;b&gt;[Disadvantage]&lt;/b&gt;&lt;/div&gt;Learning Curve" style="rounded=1;whiteSpace=wrap;html=1;" vertex="1" parent="1">
          <mxGeometry x="2649" y="1480" width="120" height="60" as="geometry" />
        </mxCell>
        <mxCell id="Gp7sAnvTN2membX1ZgTw-224" value="&lt;div&gt;&lt;b&gt;[Disadvantage]&lt;/b&gt;&lt;/div&gt;&lt;div&gt;No Off-line Capabilities &lt;br&gt;&lt;/div&gt;" style="rounded=1;whiteSpace=wrap;html=1;" vertex="1" parent="1">
          <mxGeometry x="2649" y="1550" width="120" height="60" as="geometry" />
        </mxCell>
        <mxCell id="Gp7sAnvTN2membX1ZgTw-225" value="&lt;div&gt;&lt;b&gt;[Disadvantage]&lt;/b&gt;&lt;/div&gt;Limited On-Premises Integration" style="rounded=1;whiteSpace=wrap;html=1;" vertex="1" parent="1">
          <mxGeometry x="2649" y="1620" width="120" height="60" as="geometry" />
        </mxCell>
        <mxCell id="Gp7sAnvTN2membX1ZgTw-226" style="edgeStyle=orthogonalEdgeStyle;rounded=0;orthogonalLoop=1;jettySize=auto;html=1;" edge="1" parent="1" source="Gp7sAnvTN2membX1ZgTw-231" target="Gp7sAnvTN2membX1ZgTw-232">
          <mxGeometry relative="1" as="geometry" />
        </mxCell>
        <mxCell id="Gp7sAnvTN2membX1ZgTw-227" style="edgeStyle=orthogonalEdgeStyle;rounded=0;orthogonalLoop=1;jettySize=auto;html=1;entryX=0;entryY=0.5;entryDx=0;entryDy=0;" edge="1" parent="1" source="Gp7sAnvTN2membX1ZgTw-231" target="Gp7sAnvTN2membX1ZgTw-233">
          <mxGeometry relative="1" as="geometry" />
        </mxCell>
        <mxCell id="Gp7sAnvTN2membX1ZgTw-228" style="edgeStyle=orthogonalEdgeStyle;rounded=0;orthogonalLoop=1;jettySize=auto;html=1;entryX=0;entryY=0.5;entryDx=0;entryDy=0;" edge="1" parent="1" source="Gp7sAnvTN2membX1ZgTw-231" target="Gp7sAnvTN2membX1ZgTw-234">
          <mxGeometry relative="1" as="geometry" />
        </mxCell>
        <mxCell id="Gp7sAnvTN2membX1ZgTw-229" style="edgeStyle=orthogonalEdgeStyle;rounded=0;orthogonalLoop=1;jettySize=auto;html=1;entryX=0;entryY=0.5;entryDx=0;entryDy=0;" edge="1" parent="1" source="Gp7sAnvTN2membX1ZgTw-231" target="Gp7sAnvTN2membX1ZgTw-235">
          <mxGeometry relative="1" as="geometry" />
        </mxCell>
        <mxCell id="Gp7sAnvTN2membX1ZgTw-230" style="edgeStyle=orthogonalEdgeStyle;rounded=0;orthogonalLoop=1;jettySize=auto;html=1;entryX=0;entryY=0.5;entryDx=0;entryDy=0;" edge="1" parent="1" source="Gp7sAnvTN2membX1ZgTw-231" target="Gp7sAnvTN2membX1ZgTw-236">
          <mxGeometry relative="1" as="geometry" />
        </mxCell>
        <mxCell id="Gp7sAnvTN2membX1ZgTw-231" value="&lt;div&gt;&lt;b&gt;[Product]&lt;/b&gt;&lt;/div&gt;Amazon Bedrock" style="rounded=1;whiteSpace=wrap;html=1;" vertex="1" parent="1">
          <mxGeometry x="2160" y="1754" width="120" height="60" as="geometry" />
        </mxCell>
        <mxCell id="Gp7sAnvTN2membX1ZgTw-232" value="&lt;div&gt;&lt;b&gt;[Feature]&lt;/b&gt;&lt;/div&gt;Custom Model Import" style="rounded=1;whiteSpace=wrap;html=1;" vertex="1" parent="1">
          <mxGeometry x="2350" y="1754" width="120" height="60" as="geometry" />
        </mxCell>
        <mxCell id="Gp7sAnvTN2membX1ZgTw-233" value="&lt;div&gt;&lt;b&gt;[Feature]&lt;/b&gt;&lt;/div&gt;Guardrails" style="rounded=1;whiteSpace=wrap;html=1;" vertex="1" parent="1">
          <mxGeometry x="2350" y="1824" width="120" height="60" as="geometry" />
        </mxCell>
        <mxCell id="Gp7sAnvTN2membX1ZgTw-234" value="&lt;div&gt;&lt;b&gt;[Feature]&lt;/b&gt;&lt;/div&gt;Single API Access&lt;div&gt;&lt;br&gt;&lt;/div&gt;" style="rounded=1;whiteSpace=wrap;html=1;" vertex="1" parent="1">
          <mxGeometry x="2350" y="1894" width="120" height="60" as="geometry" />
        </mxCell>
        <mxCell id="Gp7sAnvTN2membX1ZgTw-235" value="&lt;div&gt;&lt;b&gt;[Feature]&lt;/b&gt;&lt;/div&gt;Data Automation" style="rounded=1;whiteSpace=wrap;html=1;" vertex="1" parent="1">
          <mxGeometry x="2350" y="1964" width="120" height="60" as="geometry" />
        </mxCell>
        <mxCell id="Gp7sAnvTN2membX1ZgTw-236" value="&lt;div&gt;&lt;b&gt;[Feature]&lt;/b&gt;&lt;/div&gt;Intelligent Prompt Routing" style="rounded=1;whiteSpace=wrap;html=1;" vertex="1" parent="1">
          <mxGeometry x="2350" y="2034" width="120" height="60" as="geometry" />
        </mxCell>
        <mxCell id="Gp7sAnvTN2membX1ZgTw-237" value="&lt;div&gt;&lt;b&gt;[Advantage]&lt;/b&gt;&lt;/div&gt;Flexibility" style="rounded=1;whiteSpace=wrap;html=1;" vertex="1" parent="1">
          <mxGeometry x="2500" y="1754" width="120" height="60" as="geometry" />
        </mxCell>
        <mxCell id="Gp7sAnvTN2membX1ZgTw-238" value="&lt;div&gt;&lt;b&gt;[Advantage]&lt;/b&gt;&lt;/div&gt;Enhanced Security" style="rounded=1;whiteSpace=wrap;html=1;" vertex="1" parent="1">
          <mxGeometry x="2500" y="1824" width="120" height="60" as="geometry" />
        </mxCell>
        <mxCell id="Gp7sAnvTN2membX1ZgTw-239" value="&lt;div&gt;&lt;b&gt;[Advantage]&lt;/b&gt;&lt;/div&gt;Privacy compliance" style="rounded=1;whiteSpace=wrap;html=1;" vertex="1" parent="1">
          <mxGeometry x="2500" y="1894" width="120" height="60" as="geometry" />
        </mxCell>
        <mxCell id="Gp7sAnvTN2membX1ZgTw-240" value="&lt;div&gt;&lt;b&gt;[Advantage]&lt;/b&gt;&lt;/div&gt;Scalability" style="rounded=1;whiteSpace=wrap;html=1;" vertex="1" parent="1">
          <mxGeometry x="2500" y="1964" width="120" height="60" as="geometry" />
        </mxCell>
        <mxCell id="Gp7sAnvTN2membX1ZgTw-241" value="&lt;div&gt;&lt;b&gt;[Advantage]&lt;/b&gt;&lt;/div&gt;Ease of Use" style="rounded=1;whiteSpace=wrap;html=1;" vertex="1" parent="1">
          <mxGeometry x="2500" y="2034" width="120" height="60" as="geometry" />
        </mxCell>
        <mxCell id="Gp7sAnvTN2membX1ZgTw-242" value="&lt;div&gt;&lt;b&gt;[Disadvantage]&lt;/b&gt;&lt;/div&gt;Learning Curve" style="rounded=1;whiteSpace=wrap;html=1;" vertex="1" parent="1">
          <mxGeometry x="2649" y="1754" width="120" height="60" as="geometry" />
        </mxCell>
        <mxCell id="Gp7sAnvTN2membX1ZgTw-243" value="&lt;div&gt;&lt;b&gt;[Disadvantage]&lt;/b&gt;&lt;/div&gt;Limited Documentation" style="rounded=1;whiteSpace=wrap;html=1;" vertex="1" parent="1">
          <mxGeometry x="2649" y="1824" width="120" height="60" as="geometry" />
        </mxCell>
        <mxCell id="Gp7sAnvTN2membX1ZgTw-244" value="&lt;div&gt;&lt;b&gt;[Disadvantage]&lt;/b&gt;&lt;/div&gt;Cost Management" style="rounded=1;whiteSpace=wrap;html=1;" vertex="1" parent="1">
          <mxGeometry x="2649" y="1894" width="120" height="60" as="geometry" />
        </mxCell>
        <mxCell id="Gp7sAnvTN2membX1ZgTw-245" value="&lt;div&gt;&lt;b&gt;[Disadvantage]&lt;/b&gt;&lt;/div&gt;Vendor Lock-In" style="rounded=1;whiteSpace=wrap;html=1;" vertex="1" parent="1">
          <mxGeometry x="2649" y="1964" width="120" height="60" as="geometry" />
        </mxCell>
        <mxCell id="Gp7sAnvTN2membX1ZgTw-246" value="&lt;div&gt;&lt;b&gt;[Disadvantage]&lt;/b&gt;&lt;/div&gt;Complex Setup" style="rounded=1;whiteSpace=wrap;html=1;" vertex="1" parent="1">
          <mxGeometry x="2649" y="2034" width="120" height="60" as="geometry" />
        </mxCell>
        <mxCell id="Gp7sAnvTN2membX1ZgTw-247" value="&lt;div&gt;&lt;b&gt;[Feature]&lt;/b&gt;&lt;/div&gt;FHIR Storage" style="rounded=1;whiteSpace=wrap;html=1;" vertex="1" parent="1">
          <mxGeometry x="2350.5" y="523" width="120" height="60" as="geometry" />
        </mxCell>
        <mxCell id="Gp7sAnvTN2membX1ZgTw-248" value="&lt;div&gt;&lt;b&gt;[Feature]&lt;/b&gt;&lt;/div&gt;Data Ingestion" style="rounded=1;whiteSpace=wrap;html=1;" vertex="1" parent="1">
          <mxGeometry x="2350.5" y="593" width="120" height="60" as="geometry" />
        </mxCell>
        <mxCell id="Gp7sAnvTN2membX1ZgTw-249" value="&lt;div&gt;&lt;b&gt;[Feature]&lt;/b&gt;&lt;/div&gt;Natural Language Processing (NLP)" style="rounded=1;whiteSpace=wrap;html=1;" vertex="1" parent="1">
          <mxGeometry x="2350.5" y="663" width="120" height="60" as="geometry" />
        </mxCell>
        <mxCell id="Gp7sAnvTN2membX1ZgTw-250" value="&lt;div&gt;&lt;b&gt;[Feature]&lt;/b&gt;&lt;/div&gt;Data Transformation" style="rounded=1;whiteSpace=wrap;html=1;" vertex="1" parent="1">
          <mxGeometry x="2350.5" y="733" width="120" height="60" as="geometry" />
        </mxCell>
        <mxCell id="Gp7sAnvTN2membX1ZgTw-251" value="&lt;div&gt;&lt;b&gt;[Feature]&lt;/b&gt;&lt;/div&gt;Identify trends &amp;amp; make predictions" style="rounded=1;whiteSpace=wrap;html=1;" vertex="1" parent="1">
          <mxGeometry x="2350.5" y="803" width="120" height="60" as="geometry" />
        </mxCell>
        <mxCell id="Gp7sAnvTN2membX1ZgTw-252" value="&lt;div&gt;&lt;b&gt;[Advantage]&lt;/b&gt;&lt;/div&gt;Comprehensive Data View" style="rounded=1;whiteSpace=wrap;html=1;" vertex="1" parent="1">
          <mxGeometry x="2500.5" y="523" width="120" height="60" as="geometry" />
        </mxCell>
        <mxCell id="Gp7sAnvTN2membX1ZgTw-253" value="&lt;div&gt;&lt;b&gt;[Advantage]&lt;/b&gt;&lt;/div&gt;Scalability" style="rounded=1;whiteSpace=wrap;html=1;" vertex="1" parent="1">
          <mxGeometry x="2500.5" y="593" width="120" height="60" as="geometry" />
        </mxCell>
        <mxCell id="Gp7sAnvTN2membX1ZgTw-254" value="&lt;div&gt;&lt;b&gt;[Advantage]&lt;/b&gt;&lt;/div&gt;Cost-Effective" style="rounded=1;whiteSpace=wrap;html=1;" vertex="1" parent="1">
          <mxGeometry x="2500.5" y="663" width="120" height="60" as="geometry" />
        </mxCell>
        <mxCell id="Gp7sAnvTN2membX1ZgTw-255" value="&lt;div&gt;&lt;b&gt;[Advantage]&lt;/b&gt;&lt;/div&gt;Interoperability" style="rounded=1;whiteSpace=wrap;html=1;" vertex="1" parent="1">
          <mxGeometry x="2500.5" y="733" width="120" height="60" as="geometry" />
        </mxCell>
        <mxCell id="Gp7sAnvTN2membX1ZgTw-256" value="&lt;div&gt;&lt;b&gt;[Advantage]&lt;/b&gt;&lt;/div&gt;Enhanced Analytics" style="rounded=1;whiteSpace=wrap;html=1;" vertex="1" parent="1">
          <mxGeometry x="2500.5" y="803" width="120" height="60" as="geometry" />
        </mxCell>
        <mxCell id="Gp7sAnvTN2membX1ZgTw-257" value="&lt;div&gt;&lt;b&gt;[Disadvantage]&lt;/b&gt;&lt;/div&gt;Complex Setup" style="rounded=1;whiteSpace=wrap;html=1;" vertex="1" parent="1">
          <mxGeometry x="2649.5" y="523" width="120" height="60" as="geometry" />
        </mxCell>
        <mxCell id="Gp7sAnvTN2membX1ZgTw-258" value="&lt;div&gt;&lt;b&gt;[Disadvantage]&lt;/b&gt;&lt;/div&gt;Limited On-Premises Integration" style="rounded=1;whiteSpace=wrap;html=1;" vertex="1" parent="1">
          <mxGeometry x="2649.5" y="593" width="120" height="60" as="geometry" />
        </mxCell>
        <mxCell id="Gp7sAnvTN2membX1ZgTw-259" value="&lt;div&gt;&lt;b&gt;[Disadvantage]&lt;/b&gt;&lt;/div&gt;Data Quality" style="rounded=1;whiteSpace=wrap;html=1;" vertex="1" parent="1">
          <mxGeometry x="2649.5" y="663" width="120" height="60" as="geometry" />
        </mxCell>
        <mxCell id="Gp7sAnvTN2membX1ZgTw-260" value="&lt;div&gt;&lt;b&gt;[Disadvantage]&lt;/b&gt;&lt;/div&gt;No Off-line Capabilities " style="rounded=1;whiteSpace=wrap;html=1;" vertex="1" parent="1">
          <mxGeometry x="2649.5" y="733" width="120" height="60" as="geometry" />
        </mxCell>
        <mxCell id="Gp7sAnvTN2membX1ZgTw-261" value="&lt;div&gt;&lt;b&gt;[Disadvantage]&lt;/b&gt;&lt;/div&gt;Learning Curve" style="rounded=1;whiteSpace=wrap;html=1;" vertex="1" parent="1">
          <mxGeometry x="2649.5" y="803" width="120" height="60" as="geometry" />
        </mxCell>
        <mxCell id="Gp7sAnvTN2membX1ZgTw-262" value="&lt;div&gt;&lt;b&gt;[Feature]&lt;/b&gt;&lt;/div&gt;Summarized Clinical Notes" style="rounded=1;whiteSpace=wrap;html=1;" vertex="1" parent="1">
          <mxGeometry x="2350" y="110" width="120" height="60" as="geometry" />
        </mxCell>
        <mxCell id="Gp7sAnvTN2membX1ZgTw-263" value="&lt;div&gt;&lt;b&gt;[Feature]&lt;/b&gt;&lt;/div&gt;Rich Consultation Transcripts" style="rounded=1;whiteSpace=wrap;html=1;" vertex="1" parent="1">
          <mxGeometry x="2350" y="180" width="120" height="60" as="geometry" />
        </mxCell>
        <mxCell id="Gp7sAnvTN2membX1ZgTw-264" value="&lt;div&gt;&lt;b&gt;[Feature]&lt;/b&gt;&lt;/div&gt;Transcript segmentation" style="rounded=1;whiteSpace=wrap;html=1;" vertex="1" parent="1">
          <mxGeometry x="2350" y="250" width="120" height="60" as="geometry" />
        </mxCell>
        <mxCell id="Gp7sAnvTN2membX1ZgTw-265" value="&lt;div&gt;&lt;b&gt;[Feature]&lt;/b&gt;&lt;/div&gt;Evidence mapping" style="rounded=1;whiteSpace=wrap;html=1;" vertex="1" parent="1">
          <mxGeometry x="2350" y="320" width="120" height="60" as="geometry" />
        </mxCell>
        <mxCell id="Gp7sAnvTN2membX1ZgTw-266" value="&lt;div&gt;&lt;b&gt;[Feature]&lt;/b&gt;&lt;/div&gt;Structured medical terms" style="rounded=1;whiteSpace=wrap;html=1;" vertex="1" parent="1">
          <mxGeometry x="2350" y="390" width="120" height="60" as="geometry" />
        </mxCell>
        <mxCell id="Gp7sAnvTN2membX1ZgTw-267" value="&lt;div&gt;&lt;b&gt;[Advantage]&lt;/b&gt;&lt;/div&gt;HIPAA eligibility" style="rounded=1;whiteSpace=wrap;html=1;" vertex="1" parent="1">
          <mxGeometry x="2500" y="110" width="120" height="60" as="geometry" />
        </mxCell>
        <mxCell id="Gp7sAnvTN2membX1ZgTw-268" value="&lt;div&gt;&lt;b&gt;[Advantage]&lt;/b&gt;&lt;/div&gt;Enhances Clinician Productivity" style="rounded=1;whiteSpace=wrap;html=1;" vertex="1" parent="1">
          <mxGeometry x="2500" y="180" width="120" height="60" as="geometry" />
        </mxCell>
        <mxCell id="Gp7sAnvTN2membX1ZgTw-269" value="&lt;div&gt;&lt;b&gt;[Advantage]&lt;/b&gt;&lt;/div&gt;Safeguards Patient Privacy" style="rounded=1;whiteSpace=wrap;html=1;" vertex="1" parent="1">
          <mxGeometry x="2500" y="250" width="120" height="60" as="geometry" />
        </mxCell>
        <mxCell id="Gp7sAnvTN2membX1ZgTw-270" value="&lt;div&gt;&lt;b&gt;[Advantage]&lt;/b&gt;&lt;/div&gt;Improves Patient Experience" style="rounded=1;whiteSpace=wrap;html=1;" vertex="1" parent="1">
          <mxGeometry x="2500" y="320" width="120" height="60" as="geometry" />
        </mxCell>
        <mxCell id="Gp7sAnvTN2membX1ZgTw-271" value="&lt;div&gt;&lt;b&gt;[Advantage]&lt;/b&gt;&lt;/div&gt;Responsible AI Use" style="rounded=1;whiteSpace=wrap;html=1;" vertex="1" parent="1">
          <mxGeometry x="2500" y="390" width="120" height="60" as="geometry" />
        </mxCell>
        <mxCell id="Gp7sAnvTN2membX1ZgTw-272" value="&lt;div&gt;&lt;b&gt;[Disadvantage]&lt;/b&gt;&lt;/div&gt;Complex Setup" style="rounded=1;whiteSpace=wrap;html=1;" vertex="1" parent="1">
          <mxGeometry x="2649" y="110" width="120" height="60" as="geometry" />
        </mxCell>
        <mxCell id="Gp7sAnvTN2membX1ZgTw-273" value="&lt;div&gt;&lt;b&gt;[Disadvantage]&lt;/b&gt;&lt;/div&gt;Cost Management" style="rounded=1;whiteSpace=wrap;html=1;" vertex="1" parent="1">
          <mxGeometry x="2649" y="180" width="120" height="60" as="geometry" />
        </mxCell>
        <mxCell id="Gp7sAnvTN2membX1ZgTw-274" value="&lt;div&gt;&lt;b&gt;[Disadvantage]&lt;/b&gt;&lt;/div&gt;Learning Curve" style="rounded=1;whiteSpace=wrap;html=1;" vertex="1" parent="1">
          <mxGeometry x="2649" y="250" width="120" height="60" as="geometry" />
        </mxCell>
        <mxCell id="Gp7sAnvTN2membX1ZgTw-275" value="&lt;div&gt;&lt;b&gt;[Disadvantage]&lt;/b&gt;&lt;/div&gt;Dependency on AWS" style="rounded=1;whiteSpace=wrap;html=1;" vertex="1" parent="1">
          <mxGeometry x="2649" y="320" width="120" height="60" as="geometry" />
        </mxCell>
        <mxCell id="Gp7sAnvTN2membX1ZgTw-276" value="&lt;div&gt;&lt;b&gt;[Disadvantage]&lt;/b&gt;&lt;/div&gt;Accuracy Variability" style="rounded=1;whiteSpace=wrap;html=1;" vertex="1" parent="1">
          <mxGeometry x="2649" y="390" width="120" height="60" as="geometry" />
        </mxCell>
      </root>
    </mxGraphModel>
  </diagram>
</mxfile>
